<svg xmlns="http://www.w3.org/2000/svg" viewBox="0 0 44.87 46.02"><defs><style>.a{fill:aqua;fill-rule:evenodd;}</style></defs><title>Ресурс 9</title><path class="a" d="M17.13,22.72,0,22.83v1.69l17.13-.11V22.72Z"/><path class="a" d="M21,29.09,21.13,46l1.76,0-.11-16.92Z"/><path class="a" d="M44.86,22.58l-18,.12,0,1.69,17.95-.12V22.58Z"/><path class="a" d="M20.81,0l.12,19h1.76L22.56,0Z"/><path class="a" d="M27,30.63v1.49l5.18,0V27.91l-1.54,0,0,2.77L27,30.63Z"/><path class="a" d="M17.11,16.37,17,14.89l-5,0,0,4.45,1.5,0,0-2.95,3.63,0Z"/><path class="a" d="M17.1,30.71v1.47l-5,0,0-4.14h1.48v2.74l3.54-.11Z"/><path class="a" d="M26.92,16.31l0-1.48,5.18-.05,0,4.45H30.65V16.29l-3.72,0Z"/></svg>