<svg width="1200" height="840" viewBox="0 0 1200 840" fill="none" xmlns="http://www.w3.org/2000/svg">
<rect width="1200" height="840" fill="#E5E5E5"/>
<g clip-path="url(#clip0)">
<rect width="1200" height="840" fill="#230A6B"/>
<rect width="1200" height="840" fill="url(#paint0_radial)"/>
<path d="M364.524 792.62C372.484 792.524 378.381 792.041 378.381 791.559C378.381 791.076 372.484 790.594 364.524 790.497C363.639 790.497 363.148 789.436 363.836 788.761C366.981 785.48 369.143 783.067 368.848 782.874C368.553 782.681 366.096 784.708 362.853 787.796C362.165 788.375 361.084 787.989 361.084 787.12C360.986 779.304 360.495 773.514 360.003 773.514C359.512 773.514 359.021 779.304 358.922 787.12C358.922 787.989 357.841 788.471 357.153 787.796C353.812 784.708 351.355 782.585 351.158 782.874C350.962 783.164 353.026 785.576 356.17 788.761C356.76 789.436 356.367 790.497 355.483 790.497C347.522 790.594 341.626 791.076 341.626 791.559C341.626 792.041 347.522 792.524 355.483 792.62C356.367 792.62 356.858 793.682 356.17 794.357C353.026 797.638 350.864 800.051 351.158 800.244C351.453 800.437 353.91 798.41 357.153 795.322C357.841 794.743 358.922 795.129 358.922 795.998C359.021 803.814 359.512 809.604 360.003 809.604C360.495 809.604 360.986 803.814 361.084 795.998C361.084 795.129 362.165 794.647 362.853 795.322C366.195 798.41 368.652 800.533 368.848 800.244C369.045 799.954 366.981 797.542 363.836 794.357C363.246 793.682 363.639 792.62 364.524 792.62Z" fill="white"/>
<path d="M913.692 79.4164C921.652 79.3199 927.549 78.8374 927.549 78.355C927.549 77.8725 921.652 77.39 913.692 77.2935C912.807 77.2935 912.316 76.232 913.004 75.5566C916.149 72.2757 918.311 69.8633 918.016 69.6703C917.82 69.4773 915.264 71.5037 912.021 74.5916C911.333 75.1706 910.252 74.7846 910.252 73.9161C910.154 66.0999 909.663 60.3102 909.171 60.3102C908.68 60.3102 908.189 66.0999 908.09 73.9161C908.09 74.7846 907.009 75.2671 906.321 74.5916C902.98 71.5037 900.523 69.3808 900.326 69.6703C900.13 69.8633 902.194 72.3722 905.338 75.5566C905.928 76.232 905.535 77.2935 904.651 77.2935C896.69 77.39 890.794 77.8725 890.794 78.355C890.794 78.8374 896.69 79.3199 904.651 79.4164C905.535 79.4164 906.026 80.4779 905.338 81.1533C902.194 84.4342 900.032 86.8466 900.326 87.0396C900.523 87.2326 903.078 85.2062 906.321 82.1183C907.009 81.5393 908.09 81.9253 908.09 82.7938C908.189 90.61 908.68 96.3998 909.171 96.3998C909.663 96.3998 910.154 90.61 910.252 82.7938C910.252 81.9253 911.333 81.4428 912.021 82.1183C915.363 85.2062 917.82 87.3291 918.016 87.0396C918.213 86.8466 916.149 84.3377 913.004 81.1533C912.414 80.4779 912.807 79.4164 913.692 79.4164Z" fill="white"/>
<path d="M382.898 30.1063C390.859 30.0098 396.755 29.5273 396.755 29.0448C396.755 28.5623 390.859 28.0798 382.898 27.9833C382.014 27.9833 381.522 26.9219 382.21 26.2464C385.355 22.9655 387.517 20.5531 387.223 20.3601C387.026 20.1671 384.471 22.1936 381.228 25.2815C380.54 25.8604 379.459 25.4744 379.459 24.606C379.36 16.7898 378.869 11 378.378 11C377.886 11 377.395 16.7898 377.297 24.606C377.297 25.4744 376.216 25.9569 375.528 25.2815C372.186 22.1936 369.729 20.0707 369.533 20.3601C369.336 20.5531 371.4 23.062 374.545 26.2464C375.135 26.9219 374.741 27.9833 373.857 27.9833C365.897 28.0798 360 28.5623 360 29.0448C360 29.5273 365.897 30.0098 373.857 30.1063C374.741 30.1063 375.233 31.1677 374.545 31.8432C371.4 35.1241 369.238 37.5365 369.533 37.7295C369.729 37.9225 372.285 35.896 375.528 32.8082C376.216 32.2292 377.297 32.6152 377.297 33.4836C377.395 41.2998 377.886 47.0896 378.378 47.0896C378.869 47.0896 379.36 41.2998 379.459 33.4836C379.459 32.6152 380.54 32.1327 381.228 32.8082C384.569 35.896 387.026 38.019 387.223 37.7295C387.419 37.5365 385.355 35.0276 382.21 31.8432C381.522 31.1677 382.014 30.1063 382.898 30.1063Z" fill="white"/>
<path d="M926.898 599.106C934.859 599.01 940.755 598.527 940.755 598.045C940.755 597.562 934.859 597.08 926.898 596.983C926.014 596.983 925.523 595.922 926.21 595.246C929.355 591.966 931.517 589.553 931.223 589.36C931.026 589.167 928.471 591.194 925.228 594.281C924.54 594.86 923.459 594.474 923.459 593.606C923.36 585.79 922.869 580 922.378 580C921.886 580 921.395 585.79 921.297 593.606C921.297 594.474 920.216 594.957 919.528 594.281C916.186 591.194 913.729 589.071 913.533 589.36C913.336 589.553 915.4 592.062 918.545 595.246C919.135 595.922 918.741 596.983 917.857 596.983C909.897 597.08 904 597.562 904 598.045C904 598.527 909.897 599.01 917.857 599.106C918.741 599.106 919.233 600.168 918.545 600.843C915.4 604.124 913.238 606.536 913.533 606.729C913.729 606.922 916.285 604.896 919.528 601.808C920.216 601.229 921.297 601.615 921.297 602.484C921.395 610.3 921.886 616.09 922.378 616.09C922.869 616.09 923.36 610.3 923.459 602.484C923.459 601.615 924.54 601.133 925.228 601.808C928.569 604.896 931.026 607.019 931.223 606.729C931.419 606.536 929.355 604.028 926.21 600.843C925.621 600.168 926.014 599.106 926.898 599.106Z" fill="white"/>
<path d="M850.15 786.941C860.979 786.81 869 786.155 869 785.5C869 784.845 860.979 784.19 850.15 784.059C848.946 784.059 848.278 782.618 849.214 781.701C853.492 777.246 856.433 773.971 856.032 773.709C855.765 773.447 852.289 776.198 847.877 780.39C846.941 781.176 845.471 780.652 845.471 779.473C845.337 768.861 844.668 761 844 761C843.332 761 842.663 768.861 842.529 779.473C842.529 780.652 841.059 781.307 840.123 780.39C835.578 776.198 832.235 773.316 831.968 773.709C831.701 774.102 834.508 777.377 838.786 781.701C839.588 782.618 839.053 784.059 837.85 784.059C827.021 784.19 819 784.845 819 785.5C819 786.155 827.021 786.81 837.85 786.941C839.053 786.941 839.722 788.382 838.786 789.299C834.508 793.754 831.567 797.029 831.968 797.291C832.369 797.554 835.711 794.802 840.123 790.61C841.059 789.824 842.529 790.348 842.529 791.527C842.663 802.139 843.332 810 844 810C844.668 810 845.337 802.139 845.471 791.527C845.471 790.348 846.941 789.693 847.877 790.61C852.422 794.802 855.765 797.685 856.032 797.291C856.299 797.029 853.492 793.623 849.214 789.299C848.278 788.382 848.946 786.941 850.15 786.941Z" fill="white"/>
<path d="M1099.24 479.972C1107.2 479.876 1113.09 479.393 1113.09 478.911C1113.09 478.428 1107.2 477.946 1099.24 477.849C1098.35 477.849 1097.86 476.788 1098.55 476.113C1101.69 472.832 1103.86 470.419 1103.56 470.226C1103.27 470.033 1100.81 472.06 1097.57 475.148C1096.88 475.727 1095.8 475.341 1095.8 474.472C1095.7 466.656 1095.21 460.866 1094.72 460.866C1094.23 460.866 1093.73 466.656 1093.64 474.472C1093.64 475.341 1092.55 475.823 1091.87 475.148C1088.53 472.06 1086.07 469.937 1085.87 470.226C1085.68 470.516 1087.74 472.928 1090.88 476.113C1091.47 476.788 1091.08 477.849 1090.2 477.849C1082.24 477.946 1076.34 478.428 1076.34 478.911C1076.34 479.393 1082.24 479.876 1090.2 479.972C1091.08 479.972 1091.57 481.034 1090.88 481.709C1087.74 484.99 1085.58 487.403 1085.87 487.596C1086.17 487.789 1088.62 485.762 1091.87 482.674C1092.55 482.095 1093.64 482.481 1093.64 483.35C1093.73 491.166 1094.23 496.956 1094.72 496.956C1095.21 496.956 1095.7 491.166 1095.8 483.35C1095.8 482.481 1096.88 481.999 1097.57 482.674C1100.91 485.762 1103.37 487.885 1103.56 487.596C1103.76 487.306 1101.69 484.894 1098.55 481.709C1097.86 481.034 1098.35 479.972 1099.24 479.972Z" fill="white"/>
<path d="M605.792 195.887C613.753 195.791 619.649 195.308 619.649 194.826C619.649 194.343 613.753 193.861 605.792 193.765C604.908 193.765 604.416 192.703 605.104 192.028C608.249 188.747 610.411 186.334 610.116 186.141C609.92 185.948 607.365 187.975 604.122 191.063C603.434 191.642 602.353 191.256 602.353 190.387C602.254 182.571 601.763 176.781 601.272 176.781C600.78 176.781 600.289 182.571 600.19 190.387C600.19 191.256 599.109 191.738 598.422 191.063C595.08 187.975 592.623 185.852 592.427 186.141C592.23 186.334 594.294 188.843 597.439 192.028C598.028 192.703 597.635 193.765 596.751 193.765C588.79 193.861 582.894 194.343 582.894 194.826C582.894 195.308 588.79 195.791 596.751 195.887C597.635 195.887 598.127 196.949 597.439 197.624C594.294 200.905 592.132 203.318 592.427 203.511C592.722 203.704 595.178 201.677 598.422 198.589C599.109 198.01 600.19 198.396 600.19 199.265C600.289 207.081 600.78 212.871 601.272 212.871C601.763 212.871 602.254 207.081 602.353 199.265C602.353 198.396 603.434 197.914 604.122 198.589C607.463 201.677 609.92 203.8 610.116 203.511C610.313 203.221 608.249 200.809 605.104 197.624C604.416 196.949 604.908 195.887 605.792 195.887Z" fill="white"/>
<path d="M26.8984 715.106C34.8588 715.01 40.7553 714.527 40.7553 714.045C40.7553 713.562 34.8588 713.08 26.8984 712.983C26.0139 712.983 25.5225 711.922 26.2104 711.246C29.3553 707.966 31.5174 705.553 31.2225 705.36C31.026 705.167 28.4708 707.194 25.2277 710.281C24.5397 710.86 23.4587 710.474 23.4587 709.606C23.3604 701.79 22.869 696 22.3777 696C21.8863 696 21.3949 701.79 21.2966 709.606C21.2966 710.474 20.2156 710.957 19.5277 710.281C16.1863 707.194 13.7294 705.071 13.5328 705.36C13.3362 705.553 15.4 708.062 18.5449 711.246C19.1345 711.922 18.7414 712.983 17.857 712.983C9.89658 713.08 4 713.562 4 714.045C4 714.527 9.89658 715.01 17.857 715.106C18.7414 715.106 19.2328 716.168 18.5449 716.843C15.4 720.124 13.238 722.536 13.5328 722.729C13.7294 722.922 16.2845 720.896 19.5277 717.808C20.2156 717.229 21.2966 717.615 21.2966 718.484C21.3949 726.3 21.8863 732.09 22.3777 732.09C22.869 732.09 23.3604 726.3 23.4587 718.484C23.4587 717.615 24.5397 717.133 25.2277 717.808C28.5691 720.896 31.026 723.019 31.2225 722.729C31.4191 722.536 29.3553 720.028 26.2104 716.843C25.5225 716.168 26.0139 715.106 26.8984 715.106Z" fill="white"/>
<path d="M192.799 489.19C202.118 489.071 209 488.535 209 488C209 487.405 202.118 486.929 192.799 486.81C191.763 486.81 191.215 485.561 191.946 484.788C195.661 480.98 198.098 478.125 197.854 477.887C197.61 477.649 194.687 480.028 190.789 483.657C189.997 484.371 188.779 483.836 188.718 482.824C188.596 473.722 188.048 467 187.5 467C186.891 467 186.404 473.722 186.282 482.824C186.282 483.836 185.003 484.371 184.211 483.657C180.313 480.028 177.39 477.649 177.146 477.887C176.902 478.125 179.339 480.98 183.054 484.788C183.785 485.561 183.237 486.751 182.201 486.81C172.882 486.929 166 487.465 166 488C166 488.595 172.882 489.071 182.201 489.19C183.237 489.19 183.785 490.439 183.054 491.212C179.339 495.02 176.902 497.875 177.146 498.113C177.39 498.351 180.313 495.972 184.211 492.343C185.003 491.629 186.221 492.164 186.282 493.176C186.404 502.278 186.952 509 187.5 509C188.109 509 188.596 502.278 188.718 493.176C188.718 492.164 189.997 491.629 190.789 492.343C194.687 495.972 197.61 498.351 197.854 498.113C198.098 497.875 195.661 495.02 191.946 491.212C191.215 490.439 191.763 489.19 192.799 489.19Z" fill="white"/>
<path d="M1099.81 175.963C1107.4 175.867 1113 175.433 1113 175C1113 174.518 1107.4 174.133 1099.81 174.037C1098.97 174.037 1098.52 173.025 1099.12 172.399C1102.14 169.317 1104.13 167.006 1103.93 166.813C1103.73 166.62 1101.35 168.547 1098.18 171.484C1097.53 172.062 1096.54 171.629 1096.49 170.81C1096.39 163.442 1095.95 158 1095.5 158C1095 158 1094.61 163.442 1094.51 170.81C1094.51 171.629 1093.47 172.062 1092.82 171.484C1089.65 168.547 1087.27 166.62 1087.07 166.813C1086.87 167.006 1088.86 169.317 1091.88 172.399C1092.48 173.025 1092.03 173.989 1091.19 174.037C1083.6 174.133 1078 174.567 1078 175C1078 175.482 1083.6 175.867 1091.19 175.963C1092.03 175.963 1092.48 176.975 1091.88 177.601C1088.86 180.683 1086.87 182.994 1087.07 183.187C1087.27 183.38 1089.65 181.453 1092.82 178.516C1093.47 177.938 1094.46 178.371 1094.51 179.19C1094.61 186.558 1095.05 192 1095.5 192C1096 192 1096.39 186.558 1096.49 179.19C1096.49 178.371 1097.53 177.938 1098.18 178.516C1101.35 181.453 1103.73 183.38 1103.93 183.187C1104.13 182.994 1102.14 180.683 1099.12 177.601C1098.52 176.975 1098.97 175.963 1099.81 175.963Z" fill="white"/>
<path d="M180.292 227.303C190.477 227.173 198 226.586 198 226C198 225.348 190.477 224.827 180.292 224.697C179.16 224.697 178.561 223.329 179.36 222.482C183.421 218.312 186.084 215.184 185.817 214.924C185.551 214.663 182.356 217.269 178.095 221.244C177.229 222.025 175.898 221.439 175.831 220.331C175.698 210.363 175.099 203 174.5 203C173.901 203 173.302 210.363 173.169 220.331C173.169 221.439 171.771 222.025 170.905 221.244C166.644 217.269 163.449 214.663 163.183 214.924C162.916 215.184 165.579 218.312 169.64 222.482C170.439 223.329 169.84 224.632 168.708 224.697C158.523 224.827 151 225.414 151 226C151 226.652 158.523 227.173 168.708 227.303C169.84 227.303 170.439 228.671 169.64 229.518C165.579 233.688 162.916 236.816 163.183 237.076C163.449 237.337 166.644 234.731 170.905 230.756C171.771 229.975 173.102 230.561 173.169 231.669C173.302 241.637 173.901 249 174.5 249C175.099 249 175.698 241.637 175.831 231.669C175.831 230.561 177.229 229.975 178.095 230.756C182.356 234.731 185.551 237.337 185.817 237.076C186.084 236.816 183.421 233.688 179.36 229.518C178.561 228.671 179.16 227.303 180.292 227.303Z" fill="white"/>
<path d="M907.64 347.228C921.076 347.055 931 346.278 931 345.5C931 344.722 921.076 343.945 907.64 343.772C906.147 343.772 905.357 341.957 906.411 340.834C911.768 335.305 915.28 331.157 914.929 330.812C914.578 330.466 910.363 333.922 904.742 339.193C903.601 340.229 901.844 339.452 901.756 337.983C901.581 324.763 900.79 315 900 315C899.122 315 898.419 324.763 898.244 337.983C898.244 339.452 896.399 340.229 895.258 339.193C889.637 333.922 885.422 330.466 885.071 330.812C884.72 331.157 888.232 335.305 893.589 340.834C894.643 341.957 893.853 343.686 892.36 343.772C878.923 343.945 869 344.722 869 345.5C869 346.278 878.923 347.055 892.36 347.228C893.853 347.228 894.643 349.043 893.589 350.166C888.232 355.695 884.72 359.843 885.071 360.188C885.422 360.534 889.637 357.078 895.258 351.807C896.399 350.771 898.156 351.548 898.244 353.017C898.419 366.237 899.21 376 900 376C900.878 376 901.581 366.237 901.756 353.017C901.756 351.548 903.601 350.771 904.742 351.807C910.363 357.078 914.578 360.534 914.929 360.188C915.28 359.843 911.768 355.695 906.411 350.166C905.357 349.043 906.147 347.314 907.64 347.228Z" fill="white"/>
<path d="M573.538 596.36C584.157 596.224 592 595.612 592 595C592 594.32 584.157 593.776 573.538 593.64C572.358 593.64 571.734 592.212 572.567 591.329C576.8 586.977 579.576 583.714 579.299 583.442C579.021 583.17 575.69 585.889 571.248 590.037C570.346 590.853 568.958 590.241 568.888 589.085C568.749 578.683 568.125 571 567.5 571C566.875 571 566.251 578.683 566.112 589.085C566.112 590.241 564.654 590.853 563.752 590.037C559.31 585.889 555.979 583.17 555.701 583.442C555.424 583.714 558.2 586.977 562.433 591.329C563.266 592.212 562.642 593.572 561.462 593.64C550.843 593.776 543 594.388 543 595C543 595.68 550.843 596.224 561.462 596.36C562.642 596.36 563.266 597.788 562.433 598.671C558.2 603.023 555.424 606.286 555.701 606.558C555.979 606.83 559.31 604.11 563.752 599.963C564.654 599.147 566.043 599.759 566.112 600.915C566.251 611.317 566.875 619 567.5 619C568.125 619 568.749 611.317 568.888 600.915C568.888 599.759 570.346 599.147 571.248 599.963C575.69 604.11 579.021 606.83 579.299 606.558C579.576 606.286 576.8 603.023 572.567 598.671C571.734 597.788 572.358 596.36 573.538 596.36Z" fill="white"/>
<g clip-path="url(#clip1)">
<path d="M567.693 495.939C600.555 460.926 600.555 404.158 567.693 369.145C534.831 334.132 481.552 334.132 448.691 369.145C415.829 404.158 415.829 460.926 448.691 495.939C481.552 530.953 534.831 530.953 567.693 495.939Z" fill="#FF3C3C"/>
<path d="M509.63 375.517C519.775 375.517 528 373.255 528 370.466C528 367.676 519.775 365.414 509.63 365.414C499.484 365.414 491.259 367.676 491.259 370.466C491.259 373.255 499.484 375.517 509.63 375.517Z" fill="#BE1423"/>
<path d="M488.593 438.025C488.593 441.813 479.111 444.97 467.259 444.97C455.407 444.97 445.926 441.813 445.926 438.025C445.926 434.236 455.407 431.079 467.259 431.079C479.111 431.079 488.593 434.236 488.593 438.025Z" fill="#BE1423"/>
<path d="M501.333 399.194C501.333 402.035 488.296 404.245 472 404.245C455.704 404.245 442.667 402.035 442.667 399.194C442.667 396.353 455.704 394.143 472 394.143C488.296 394.143 501.333 396.353 501.333 399.194Z" fill="#BE1423"/>
<path d="M546.37 419.399C546.37 421.293 536.889 422.556 525.333 422.556C513.778 422.556 504.296 420.977 504.296 419.399C504.296 417.504 513.778 416.242 525.333 416.242C537.185 416.242 546.37 417.504 546.37 419.399Z" fill="#BE1423"/>
<path d="M525.333 461.386C525.333 462.965 517.333 464.227 507.259 464.227C497.481 464.227 489.185 462.965 489.185 461.386C489.185 459.808 497.185 458.545 507.259 458.545C517.333 458.545 525.333 459.808 525.333 461.386Z" fill="#BE1423"/>
<path d="M508.148 343C505.185 343 501.926 343.316 498.963 343.631C532.148 347.735 557.926 377.727 557.926 414.347C557.926 453.81 528 485.695 490.963 485.695C456.593 485.695 428.444 458.229 424.593 422.871C424.296 426.028 424 429.185 424 432.658C424 481.907 461.63 522 508.148 522C554.37 522 592 481.907 592 432.658C592 383.093 554.37 343 508.148 343Z" fill="#BE1414"/>
</g>
<g clip-path="url(#clip2)">
<path d="M1192.67 855.58C1238.98 829.45 1257.19 767.128 1233.34 716.381C1209.5 665.633 1152.63 645.677 1106.32 671.807C1060.02 697.937 1041.81 760.258 1065.65 811.006C1089.49 861.753 1146.36 881.71 1192.67 855.58Z" fill="#FABE9B"/>
<path d="M1234.54 718.228C1232.04 712.436 1228.98 706.948 1225.36 701.766C1238.44 752.068 1215.9 799.321 1174.73 823.1C1130.22 849.013 1079.59 836.209 1057.06 784.078C1058.73 792.614 1061.23 800.845 1064.85 808.772C1087.66 860.293 1144.13 881.633 1191.15 856.635C1238.16 831.636 1257.35 769.75 1234.54 718.228Z" fill="#D27350"/>
<path d="M1279.05 687.437C1281 691.705 1281.28 696.278 1280.72 699.632C1280.72 700.546 1280.44 701.156 1280.16 702.071C1279.89 702.68 1279.89 703.595 1279.61 704.205C1279.33 705.424 1278.77 706.948 1278.22 707.863C1276.27 712.436 1274.04 715.485 1272.1 718.533C1267.65 724.63 1263.2 729.508 1258.47 734.081C1249.29 743.227 1239.55 751.458 1229.53 759.08C1209.78 774.323 1188.92 787.127 1167.22 798.406C1156.37 803.894 1145.52 809.381 1134.39 814.259C1123.27 819.137 1111.86 823.71 1100.46 827.673C1089.05 831.636 1077.09 834.99 1064.85 837.429C1058.73 838.648 1052.33 839.563 1045.37 839.563C1041.76 839.563 1038.14 839.258 1033.69 838.343C1032.58 838.038 1031.47 837.733 1030.35 837.124C1029.8 836.819 1028.96 836.514 1028.4 836.209C1027.85 835.904 1027.29 835.599 1026.46 834.99C1023.68 833.161 1020.62 830.417 1018.67 825.844C1016.72 821.576 1016.72 817.003 1017.28 813.649C1017.28 812.735 1017.56 812.125 1017.83 811.211C1018.11 810.601 1018.11 809.686 1018.39 809.077C1018.95 807.857 1019.22 806.638 1019.78 805.418C1021.73 801.15 1023.95 798.102 1026.18 795.053C1030.63 789.261 1035.36 784.688 1040.09 780.42C1049.83 771.884 1059.84 764.262 1069.85 757.25C1079.87 750.239 1090.44 743.837 1100.73 737.434C1111.03 731.032 1121.88 725.24 1132.45 719.753C1153.87 708.473 1175.57 698.108 1198.1 688.962C1209.51 684.389 1220.91 680.426 1232.87 677.377C1238.99 675.853 1245.11 674.633 1252.07 674.328C1255.41 674.024 1259.3 674.024 1263.47 675.243C1264.59 675.548 1265.7 675.853 1266.81 676.158C1267.37 676.462 1268.2 676.767 1268.76 677.072C1269.32 677.377 1269.87 677.682 1270.71 677.987C1273.77 680.121 1277.1 683.169 1279.05 687.437ZM1257.91 698.717C1258.47 700.242 1259.58 700.851 1259.86 700.851C1259.58 700.851 1259.58 700.546 1259.02 700.546C1257.63 700.242 1255.41 699.937 1252.9 699.937C1248.17 699.937 1242.61 700.546 1237.32 701.461C1226.47 703.595 1215.35 706.644 1204.5 710.302C1182.52 717.619 1161.38 727.374 1140.51 738.349C1130.22 744.141 1119.93 749.934 1110.19 756.336C1100.18 762.738 1090.44 769.445 1080.98 776.457C1071.52 783.468 1062.62 791.09 1054.55 799.321C1050.66 803.284 1046.77 807.552 1043.71 811.82C1042.31 813.954 1040.92 816.088 1040.37 817.308C1040.09 817.613 1040.09 817.918 1040.09 818.222C1040.09 817.918 1040.37 816.698 1039.53 815.479C1038.98 813.954 1038.14 813.345 1037.86 813.04C1038.14 813.04 1038.14 813.04 1038.7 813.345C1040.09 813.649 1042.31 813.649 1044.54 813.649C1049.27 813.345 1054.55 812.43 1059.84 811.211C1070.41 808.467 1081.26 804.809 1091.83 800.54C1102.4 796.272 1112.97 791.7 1123.55 786.822C1134.12 781.944 1144.41 776.457 1154.7 770.969C1175.29 759.689 1195.32 748.105 1214.51 734.996C1223.97 728.594 1233.43 721.582 1241.77 714.265C1245.95 710.607 1249.84 706.644 1252.9 702.68C1254.57 700.851 1255.68 698.717 1256.52 697.498C1256.8 697.193 1256.8 696.888 1256.8 696.888C1257.35 695.973 1257.08 697.193 1257.91 698.717Z" fill="#FFD23C"/>
<path d="M1227.31 704.51C1201.16 663.353 1150.81 647.806 1108.25 670.365C1064.29 693.839 1044.54 749.629 1060.95 799.016C1065.13 812.43 1100.46 796.272 1156.93 766.396C1193.65 746.885 1233.71 727.984 1227.31 704.51Z" fill="#FABE9B"/>
</g>
<path d="M63.5 236C171.472 236 259 148.472 259 40.5C259 -67.4717 171.472 -155 63.5 -155C-44.4717 -155 -132 -67.4717 -132 40.5C-132 148.472 -44.4717 236 63.5 236Z" fill="#FFF5AA"/>
<path d="M63.5 -155C56.4391 -155 49.3781 -154.559 42.3172 -153.676C119.546 -144.409 179.564 -78.6535 179.564 0.782166C179.564 86.8375 109.837 156.564 23.7822 156.564C-56.0948 156.564 -121.409 96.5463 -130.676 19.3172C-131.559 26.3781 -132 33.4391 -132 40.5C-132 148.621 -44.6208 236 63.5 236C171.621 236 259 148.621 259 40.5C259 -67.6208 171.179 -155 63.5 -155Z" fill="#FFD23C"/>
<g clip-path="url(#clip3)">
<path d="M1288.84 32.1975C1306.78 -44.9869 1258.94 -122.148 1181.99 -140.146C1105.03 -158.144 1028.1 -110.165 1010.16 -32.9803C992.211 44.2041 1040.05 121.365 1117 139.363C1193.96 157.362 1270.89 109.382 1288.84 32.1975Z" fill="#0091C8"/>
<path d="M1149.5 -144C1144.39 -144 1139.28 -143.573 1134.17 -143.146C1190.8 -136.312 1234.66 -88.0521 1234.66 -29.5417C1234.66 33.6667 1183.57 84.9167 1120.54 84.9167C1062.21 84.9167 1014.09 40.9271 1007.28 -15.875C1006.85 -10.75 1006.43 -5.625 1006.43 -0.5C1006.43 78.9375 1070.3 143 1149.5 143C1228.7 143 1292.57 78.9375 1292.57 -0.5C1292.57 -79.9375 1228.7 -144 1149.5 -144Z" fill="#0073AA"/>
<path d="M1107.34 -6.90627L1102.23 -11.1771C1100.53 -12.8854 1097.55 -12.8854 1095.85 -11.6042L1086.91 -6.47918C1085.63 -5.62502 1083.92 -5.62502 1082.22 -6.0521L1070.72 -9.46877C1068.59 -9.89585 1067.32 -11.6042 1066.89 -13.7396L1066.04 -17.5834C1065.61 -19.7188 1063.91 -21 1062.21 -21.8542L1051.56 -24.8438C1048.58 -25.6979 1046.88 -28.6875 1047.73 -31.6771V-32.1042C1048.58 -35.5208 1051.99 -37.2292 1055.39 -35.9479L1076.26 -28.2604C1077.54 -27.8334 1079.24 -27.8334 1080.52 -28.2604L1089.46 -32.1042C1090.74 -32.5313 1092.01 -33.8125 1092.44 -35.0938C1094.14 -39.3646 1097.98 -48.3333 1097.98 -49.6146C1097.98 -50.8958 1102.23 -55.5938 1103.94 -57.7292C1104.36 -58.5833 1105.22 -59.0104 1106.07 -59.4375L1112.88 -62.4271C1115.43 -63.7083 1118.42 -62.4271 1120.12 -60.2917L1120.54 -59.8646C1122.67 -56.4479 1127.78 -56.0209 1129.91 -59.4375L1132.47 -63.2813C1133.32 -64.5625 1133.74 -66.2708 1133.32 -67.5521L1131.19 -79.0833C1131.19 -79.9375 1130.76 -80.3646 1130.34 -81.2188L1126.08 -87.625C1124.8 -89.3333 1122.67 -90.1875 1120.54 -90.1875L1099.68 -87.625C1098.4 -87.625 1097.12 -87.625 1095.85 -88.4792L1093.29 -90.1875L1105.22 -96.1667C1105.64 -96.1667 1106.07 -96.5938 1106.49 -96.5938L1115.01 -98.7292C1118.42 -99.5833 1120.54 -103.427 1118.84 -106.844L1116.71 -107.698C1115.86 -109.833 1113.73 -110.688 1111.6 -110.688L1096.27 -109.833C1094.57 -109.833 1092.87 -110.26 1092.01 -111.542L1080.94 -123.5C1079.24 -125.208 1077.11 -125.635 1074.98 -124.781L1020.48 -104.708C1018.77 -103.854 1017.5 -102.573 1017.07 -100.438L1006 -52.1771C1006 -51.75 1006 -50.8959 1006 -50.4688L1008.55 -27.4063C1008.55 -25.2709 1009.83 -23.9896 1011.54 -22.7084L1023.03 -16.7292L1040.07 -8.61459C1041.34 -8.18752 1042.19 -7.33335 1042.62 -6.0521L1049.86 6.76039C1050.28 7.18748 1050.28 8.04166 1050.71 8.46873L1054.12 30.25C1054.12 31.1041 1054.54 31.9583 1055.39 32.8125L1066.04 46.4791L1066.47 46.9062L1079.24 59.7187C1079.67 60.1458 1080.09 61 1080.52 61.8541L1092.87 96.4479C1092.87 96.4479 1092.87 96.875 1093.29 96.875L1098.83 107.979C1099.68 109.26 1100.96 110.542 1102.23 110.969L1107.77 112.677C1110.75 113.531 1114.16 111.823 1115.01 108.406C1115.01 107.979 1115.01 107.979 1115.01 107.552L1115.86 94.7396C1115.86 94.3125 1115.86 93.4583 1116.29 93.0312L1125.23 69.9687C1125.65 69.1145 1126.08 68.6875 1126.51 67.8333L1140.13 54.1666C1140.98 53.3125 1141.84 51.6041 1141.84 50.3229L1142.26 22.9895C1142.26 21.7083 1141.84 20.8541 1141.41 20L1132.47 5.90622C1132.04 5.05206 1131.19 4.19789 1129.91 3.77081L1108.62 -6.47918C1108.2 -6.47918 1107.77 -6.47919 1107.34 -6.90627Z" fill="#2BE279"/>
<path d="M1282.35 -37.2292L1275.97 -39.7917C1275.12 -40.2188 1274.69 -40.2188 1273.84 -40.2188H1229.13H1228.7L1208.69 -41.5C1206.99 -41.5 1205.28 -41.0729 1204 -39.7917L1199.32 -34.6667C1199.32 -34.6667 1198.89 -34.2396 1198.89 -33.8125L1187.82 -17.1562C1186.97 -16.3021 1186.97 -15.0208 1186.97 -13.7396L1187.82 9.32292C1187.82 10.6042 1188.25 11.8854 1189.1 12.7396L1198.89 24.2708C1199.75 25.5521 1201.45 25.9792 1202.73 26.4062L1219.33 27.6875H1219.76L1227 28.9687C1229.13 29.3958 1230.83 30.6771 1231.26 32.8125L1235.94 46.9062C1236.37 48.6146 1236.37 49.8958 1235.51 51.6042L1232.53 57.1562C1231.68 58.0104 1231.68 59.7187 1231.68 61C1232.96 66.125 1235.51 79.3646 1235.51 80.6458C1235.51 81.9271 1236.37 100.292 1236.79 108.833C1236.79 111.396 1238.92 113.531 1241.05 113.958L1250.84 116.094C1252.97 116.521 1254.68 116.094 1255.95 114.385L1286.61 83.2083C1287.46 82.3542 1288.32 81.0729 1288.32 79.3646L1291.3 34.5208L1293 0.781254C1293 0.354172 1293 -0.0729179 1293 -0.927086L1286.19 -32.9583C1285.76 -35.0938 1284.48 -36.375 1282.35 -37.2292Z" fill="#2BE279"/>
</g>
<g clip-path="url(#clip4)">
<path d="M166.743 929.611C213.801 882.553 213.801 806.257 166.743 759.199C119.685 712.142 43.3897 712.142 -3.66802 759.199C-50.7257 806.257 -50.7257 882.553 -3.66802 929.611C43.3897 976.668 119.685 976.668 166.743 929.611Z" fill="#FFDC8C"/>
<path d="M58.6543 778.203C68.0554 778.203 75.6766 770.581 75.6766 761.18C75.6766 751.779 68.0554 744.158 58.6543 744.158C49.2531 744.158 41.632 751.779 41.632 761.18C41.632 770.581 49.2531 778.203 58.6543 778.203Z" fill="#FF965A"/>
<path d="M12.9628 804.184C12.9628 810.903 7.58735 816.279 0.868021 816.279C-5.85131 816.279 -11.2268 810.903 -11.2268 804.184C-11.2268 797.465 -5.85131 792.089 0.868021 792.089C7.58735 792.089 12.9628 797.465 12.9628 804.184Z" fill="#FF965A"/>
<path d="M124.952 792.089C124.952 798.809 119.576 804.184 112.857 804.184C106.138 804.184 100.762 798.809 100.762 792.089C100.762 785.37 106.138 779.994 112.857 779.994C119.576 779.994 124.952 785.37 124.952 792.089Z" fill="#FF965A"/>
<path d="M72.9889 811.351C72.9889 816.279 68.9573 819.862 64.4777 819.862C59.5502 819.862 55.9666 815.831 55.9666 811.351C55.9666 806.424 59.9982 802.84 64.4777 802.84C68.9573 802.84 72.9889 806.872 72.9889 811.351Z" fill="#FF965A"/>
<path d="M8.93122 879.888C20.0642 879.888 29.0892 870.863 29.0892 859.73C29.0892 848.597 20.0642 839.572 8.93122 839.572C-2.20174 839.572 -11.2268 848.597 -11.2268 859.73C-11.2268 870.863 -2.20174 879.888 8.93122 879.888Z" fill="#FF965A"/>
<path d="M112.857 870.033C123.99 870.033 133.015 861.008 133.015 849.875C133.015 838.742 123.99 829.717 112.857 829.717C101.724 829.717 92.6989 838.742 92.6989 849.875C92.6989 861.008 101.724 870.033 112.857 870.033Z" fill="#FF965A"/>
<path d="M81.5 724C77.0205 724 72.9889 724.448 68.5093 724.896C115.993 730.719 153.173 771.035 153.173 820.31C153.173 873.169 110.169 916.173 57.3104 916.173C8.03532 916.173 -32.2807 879.441 -38.1041 831.509C-38.552 835.989 -39 840.02 -39 844.5C-39 910.797 14.7547 965 81.5 965C147.797 965 202 911.245 202 844.5C202 777.755 147.797 724 81.5 724Z" fill="#FF965A"/>
<path d="M190.801 844.5C190.801 851.219 185.426 856.595 178.706 856.595C171.987 856.595 166.612 851.219 166.612 844.5C166.612 837.781 171.987 832.405 178.706 832.405C185.426 832.405 190.801 837.781 190.801 844.5Z" fill="#FFBE82"/>
<path d="M168.403 809.111C173.104 809.111 176.915 805.301 176.915 800.6C176.915 795.9 173.104 792.089 168.403 792.089C163.703 792.089 159.892 795.9 159.892 800.6C159.892 805.301 163.703 809.111 168.403 809.111Z" fill="#FFBE82"/>
</g>
<rect width="1200" height="843" fill="url(#paint1_radial)" fill-opacity="0.5" style="mix-blend-mode:soft-light"/>
</g>
<defs>
<radialGradient id="paint0_radial" cx="0" cy="0" r="1" gradientUnits="userSpaceOnUse" gradientTransform="translate(600 413) rotate(90) scale(761.5 1087.86)">
<stop stop-opacity="0"/>
<stop offset="1"/>
</radialGradient>
<radialGradient id="paint1_radial" cx="0" cy="0" r="1" gradientUnits="userSpaceOnUse" gradientTransform="translate(600 421.5) rotate(90) scale(421.5 600)">
<stop stop-opacity="0"/>
<stop offset="1"/>
</radialGradient>
<clipPath id="clip0">
<rect width="1200" height="840" fill="white"/>
</clipPath>
<clipPath id="clip1">
<rect width="168" height="179" fill="white" transform="translate(424 343)"/>
</clipPath>
<clipPath id="clip2">
<rect width="264" height="207" fill="white" transform="translate(1017 660)"/>
</clipPath>
<clipPath id="clip3">
<rect width="287" height="287" fill="white" transform="translate(1006 -144)"/>
</clipPath>
<clipPath id="clip4">
<rect width="241" height="241" fill="white" transform="translate(-39 724)"/>
</clipPath>
</defs>
</svg>
