<svg width="226" height="66" viewBox="0 0 226 66" fill="none" xmlns="http://www.w3.org/2000/svg">
<path d="M218.337 5.27703C216.408 4.16217 204.311 2.22974 144.941 2.22974C87.1298 2.22974 14.4759 4.08784 6.60944 4.83109C6.08995 4.90541 4.97677 6.0946 4.01201 10.2568C0.67245 24.6757 2.30512 57.0068 7.72262 60.3513C11.0622 62.4324 59.8939 63.8446 126.462 63.8446C174.255 63.8446 215.295 63.027 217.966 62.0608C219.599 61.3919 222.419 52.8446 223.458 38.5C224.72 21.1824 222.642 7.80406 218.337 5.27703Z" fill="#3EC0D6"/>
<path d="M219.45 3.34459C218.04 2.52703 213.81 0 144.941 0C87.1299 0 14.3275 1.85811 6.38683 2.60135C4.38309 2.75 2.89885 5.12838 1.78566 9.73649C-1.33126 23.0405 -0.737559 57.75 6.53525 62.2095C12.3238 65.777 99.746 66 126.388 66C161.565 66 215.22 65.4797 218.708 64.0676C223.681 62.0608 225.462 40.9527 225.61 38.5743C226.723 24.0068 225.684 7.06081 219.45 3.34459ZM223.384 38.5C222.271 52.8446 219.45 61.4662 217.892 62.0608C215.22 63.027 174.181 63.8446 126.388 63.8446C59.8197 63.8446 10.988 62.4324 7.64844 60.3513C2.23093 57.0068 0.598263 24.6757 3.93782 10.2568C4.90258 6.09459 6.01576 4.90541 6.53525 4.83108C14.476 4.08784 87.1299 2.22973 144.941 2.22973C204.385 2.22973 216.408 4.16216 218.337 5.27703C222.642 7.80405 224.72 21.1824 223.384 38.5Z" fill="#156976"/>
<path d="M217.892 62.0608C219.154 61.5405 221.157 56.2635 222.493 47.1216C207.651 52.027 191.472 51.8041 175.739 51.4324C149.171 50.8378 122.603 50.2432 95.9611 49.6487C78.9665 49.277 61.8234 48.8311 45.3483 44.8176C34.5875 42.1419 23.9751 37.7568 16.1086 29.9527C9.72634 23.5608 5.42203 14.5676 5.64466 5.64865C5.12518 6.39189 4.53148 7.80406 3.93778 10.2568C0.598223 24.6757 2.2309 57.0068 7.6484 60.3514C10.988 62.4324 59.8197 63.8446 126.388 63.8446C174.181 63.8446 215.22 63.027 217.892 62.0608Z" fill="#3AB2C6"/>
<path d="M191.027 10.3311C190.804 9.66217 190.137 9.21623 189.469 8.91893C186.649 7.50677 183.383 7.35812 180.266 7.13515C175.814 6.83785 171.361 6.61487 166.908 6.31758C160.971 5.94596 154.96 5.64866 149.023 6.24325C145.238 6.61487 141.453 7.43244 137.891 8.69596C136.481 9.1419 134.848 10.2568 135.294 11.6689C135.59 12.7838 137.001 13.0811 138.188 13.2297C154.663 14.9392 171.361 16.723 187.613 13.6014C189.32 13.2297 191.621 12.0406 191.027 10.3311Z" fill="#8FD5F4"/>
<path d="M213.514 10.1824C213.291 9.21622 212.178 8.5473 211.213 8.17568C207.131 6.68919 202.456 7.20946 198.3 8.32433C197.409 8.5473 196.445 8.8446 195.851 9.51352C195.257 10.1824 195.109 11.2973 195.851 11.8919C196.148 12.1149 196.519 12.1892 196.89 12.2635C200.897 13.2297 205.053 13.527 209.209 13.2297C210.248 13.1554 211.361 13.0068 212.252 12.4865C213.142 12.1149 213.81 11.1487 213.514 10.1824Z" fill="#8FD5F4"/>
<path d="M196.148 26.6824C193.253 24.304 190.433 21.777 187.317 19.6959C186.649 19.25 185.906 20.2162 186.426 20.8108C188.281 22.8176 190.433 24.6013 192.511 26.3851C193.55 27.277 194.589 28.1689 195.628 29.1351C196.816 30.1757 199.265 31.2162 198.077 32.777C194.515 37.1621 191.027 41.6216 187.613 46.0811C186.797 47.1216 188.652 48.5338 189.469 47.4932C191.843 44.6689 194.07 41.6959 196.37 38.8716C197.632 37.2365 201.343 34.1892 201.343 31.8851C201.343 29.7297 197.484 27.8716 196.148 26.6824Z" fill="white"/>
<path d="M27.4632 26.6824C30.3575 24.304 33.1775 21.777 36.2945 19.6959C36.9624 19.25 37.7045 20.2162 37.185 20.8108C35.3297 22.8176 33.1775 24.6013 31.0996 26.3851C30.0606 27.277 29.0216 28.1689 27.9827 29.1351C26.7953 30.1757 24.3463 31.2162 25.5337 32.777C29.0216 37.1621 32.5838 41.6216 35.9234 46.0811C36.7397 47.1216 34.8844 48.5338 34.0681 47.4932C31.6933 44.6689 29.4669 41.6959 27.1663 38.8716C25.9047 37.2365 22.2683 34.1892 22.2683 31.8851C22.2683 29.7297 26.0531 27.8716 27.4632 26.6824Z" fill="white"/>
</svg>
