<svg xmlns="http://www.w3.org/2000/svg" viewBox="0 0 81.94 84.03"><defs><style>.a{fill:#d92600;}.b{fill:#f9b233;}.c{fill:#e86e00;}.d{fill:#f37500;}.e{fill:#f6f6f6;}.f{fill:#fc9145;}.g{fill:#8f0812;}</style></defs><title>Ресурс 10</title><path class="a" d="M70.9,42.8,44.67,37.3l-.09,2.26Z"/><path class="a" d="M74.17,60.53l-22-15.74-.93,2Z"/><path class="a" d="M54.79,73.32l-7-26.57-2,.94Z"/><path class="a" d="M29.76,75.07,39.83,49.53,37.68,49Z"/><path class="a" d="M42.6,72.86l1.1-27.53-2.18.27Z"/><path class="a" d="M76.31,30.33,49.83,34.21l.64,2.16Z"/><path class="a" d="M14.51,39l26.75-1.27-.48-2.19Z"/><path class="a" d="M9.91,62.05,32.72,47.66l-1.43-1.72Z"/><path class="a" d="M8.21,46.61l26.18-5.68-.79-2.08Z"/><path class="a" d="M9.29,23.92,33,36.71l.69-2.16Z"/><path class="a" d="M27,11.39,37,36.93l1.86-1.2Z"/><path class="a" d="M37,5.43,40.5,32.76l2.1-.67Z"/><path class="a" d="M54.77,12.2l-13.17,24,2,.79Z"/><path class="a" d="M66.43,10.73,48.87,31.55l1.89,1.18Z"/><path class="b" d="M65.46,40.1a6.1,6.1,0,0,0-2-4.42A7.68,7.68,0,0,0,64.41,32a8.06,8.06,0,0,0-8.19-7.91,7.34,7.34,0,0,0-1.5.15A8.18,8.18,0,0,0,47,19a8.32,8.32,0,0,0-5.13,1.75,5.11,5.11,0,0,0-3.06-1,4.88,4.88,0,0,0-4.39,2.58,5.51,5.51,0,0,0-2.31-.51A5.3,5.3,0,0,0,27.21,25a5,5,0,0,0-.86-.07A5.21,5.21,0,0,0,21.05,30a5.79,5.79,0,0,0,.12,1.1,6.31,6.31,0,0,0-1.53,11,6.25,6.25,0,0,0-1.57,4.15,6.36,6.36,0,0,0,3.48,5.65,6.33,6.33,0,0,0,6.16,5.23c0,3.24,3,5.87,6.61,5.87a6.94,6.94,0,0,0,5.08-2.14,8.86,8.86,0,0,0,6.28,2.6,8.74,8.74,0,0,0,8.25-5.74,8.62,8.62,0,0,0,2.75.46A8.09,8.09,0,0,0,63,44.89,6.05,6.05,0,0,0,65.46,40.1Z"/><path class="a" d="M63.69,54.22c.24-.76,1.19-.27,1.65,0a7.18,7.18,0,0,1-1-1.55c-.07-.17-.27-.52-.15-.69a.54.54,0,0,1,.6-.12,2.63,2.63,0,0,1-.74-.79,4.37,4.37,0,0,1-.24-.44,9.49,9.49,0,0,1-2.36,4.08,12.85,12.85,0,0,1-3.48,2.52.24.24,0,0,0,.14,0,3.21,3.21,0,0,1,.62.2,2.49,2.49,0,0,1,.86,1.06,4.47,4.47,0,0,1-.1-1c0-.52.46-.44.86-.37a3.19,3.19,0,0,1,1.94,1.57A8.08,8.08,0,0,1,62,57c0-.41,0-.9.5-1a1.93,1.93,0,0,1,2,1C64.05,56.18,63.43,55.1,63.69,54.22Z"/><path class="c" d="M63.74,47.42a2.56,2.56,0,0,0,0,.27,7.51,7.51,0,0,1,0,2,8.8,8.8,0,0,1-2.48,4.42A12.94,12.94,0,0,1,55,57.51a7.81,7.81,0,0,0,3.27-.3,9.25,9.25,0,0,0,3.82-2.06,7.65,7.65,0,0,0,1.5-2.28A7.29,7.29,0,0,0,63.74,47.42Z"/><path class="d" d="M63.26,33.57a.78.78,0,0,0,0-.22l-.19.17A.36.36,0,0,0,63.26,33.57Z"/><path class="d" d="M64.91,29.86c-.53.2-1,.37-1.36-.12s0-1.11.31-1.48a.7.7,0,0,1-.74.13c-.38-.2-.34-.54-.34-.91a7.54,7.54,0,0,1,.6-2.56,5,5,0,0,1-.93.79,3.16,3.16,0,0,1-1.12.66.71.71,0,0,1-1-.59,2.39,2.39,0,0,1,0-1.3c-.14.15-.21.35-.36.49a1.53,1.53,0,0,1-.57.32c-.62.22-.93-.22-1-.78-.31.46-.76.46-1.29.46-.31,0-.45,0-.66-.22s-.17-.37-.29-.54c.07.44-.72,1-1.05,1.18a5.48,5.48,0,0,1,2.7.54,8.27,8.27,0,0,1,4,3.32,14.83,14.83,0,0,1,.88,2.16,8.55,8.55,0,0,1,.45,1.91l.08-.07c.19-.15.28-.47.47-.66s.5-.27.65-.47C63.24,32.12,64.57,30.23,64.91,29.86Z"/><path class="e" d="M62.76,29.07c-1-2.13-3.82-3.41-6.16-3.83a5.62,5.62,0,0,0-3.74.52,5.75,5.75,0,0,1,3.08.37,13.29,13.29,0,0,1,3,1.54,8,8,0,0,1,2.2,2.09,6.69,6.69,0,0,1,1.12,3,14.56,14.56,0,0,1,.31,3.47l.09-.1A7.9,7.9,0,0,0,62.76,29.07Z"/><path class="d" d="M52.6,23.13a.41.41,0,0,0,.09.12.51.51,0,0,1,0-.12Z"/><path class="d" d="M52.67,22.35a2.78,2.78,0,0,1,.38-.86,1.15,1.15,0,0,1-.79.22c-.33-.1-.45-.47-.52-.76a4.59,4.59,0,0,1,0-2.41,2,2,0,0,1-.81.88c-.38.22-.71.3-.86-.19-.14.15-.21.15-.36,0a3.4,3.4,0,0,1-.5-.83,3.26,3.26,0,0,1-.26-1.4,8.51,8.51,0,0,1-.45.91,2.94,2.94,0,0,1-.74.66c-.77.42-1.29-.44-1.7-1a1.76,1.76,0,0,1-.09,1.65c-.26.51-.74.66-1.12,1a33.72,33.72,0,0,1,4.15.42,6.51,6.51,0,0,1,2.74,1.4,2.67,2.67,0,0,1,.93,1.08A4.39,4.39,0,0,1,52.67,22.35Z"/><path class="a" d="M56.68,55c-.15-.18-.36-.32-.53-.5a2.19,2.19,0,0,1-.29-.34,4.53,4.53,0,0,1-2,1.55,15.67,15.67,0,0,1-4.13.93.64.64,0,0,1-.24,0,2.46,2.46,0,0,1,.34,1.67c.16-.12.23-.37.45-.42A.94.94,0,0,1,51,58c.55.4.53,1.23.81,1.75,0-.69.48-2,1.34-1.21a5.27,5.27,0,0,1,1,1.52c.29.54.57,1.11.83,1.65-.14-.88-.45-1.74-.59-2.63-.07-.39-.29-1.42.14-1.74s.72.37.88.59c.34.49.67,1,1,1.47,0-.15-.1-.24-.17-.39s-.21-.52-.31-.79a4.94,4.94,0,0,1-.45-1.69c0-.2-.07-.64.12-.79s.4.08.55.17a1.36,1.36,0,0,1-.17-.81C56.1,54.76,56.44,55,56.68,55Z"/><path class="e" d="M49.76,20.11a7.07,7.07,0,0,0-5.49-.19,4.92,4.92,0,0,0-2.15,1.57,5.62,5.62,0,0,1,2.32-.79,12.73,12.73,0,0,1,2.76-.05,8.05,8.05,0,0,1,4.3,2,9.89,9.89,0,0,1,1.79,1.81v-.19A6.08,6.08,0,0,0,49.76,20.11Z"/><path class="d" d="M55.29,28.44c-.19-.18-.12-.52-.09-.74a3.41,3.41,0,0,1,.66-1.57c-.45.44-1.31,1.15-1.71.29a5,5,0,0,1,0-3.09,3.47,3.47,0,0,1-1.32,1.47c-.9.44-1.16-.91-1.43-1.45a1.11,1.11,0,0,1-.64,1c-.43.08-1-.64-1.1-1a.88.88,0,0,1-.91,1c-.5,0-.9-.47-1.19-.81.14.29-.17.88-.38,1.13s-.6.37-.88.64c.66.1,1.36-.05,2,.1s1.36.26,2.05.44a7.82,7.82,0,0,1,2,1,5.16,5.16,0,0,1,1.48,1.3c.24.3.48.62.71.93s.48.47.51.79a.22.22,0,0,0,0-.12c0-.08.07-.22.12-.32a3.47,3.47,0,0,1,.21-.37c.15-.2.43-.37.55-.57A.78.78,0,0,1,55.29,28.44Z"/><path class="d" d="M43.34,21c-.41.2-.6.13-.72-.34a4.83,4.83,0,0,1-.14-1.42,3.37,3.37,0,0,1-.36.68c-.26.25-.52-.14-.69-.34a4.89,4.89,0,0,1-.48-1.1,8.05,8.05,0,0,1-.28-1c-.2.71-.15,1.67-.72,2.23-.88.89-1.79-.88-2.1-1.42-.05.22,0,.47-.05.66a1.35,1.35,0,0,1-.31.66c-.31.35-.79.13-1.14,0a.72.72,0,0,1-.43,1,1.28,1.28,0,0,1-1.15-.13c.12.3.41.52.48.84a4.39,4.39,0,0,1,.07,1,3.48,3.48,0,0,1,3.15-1.23,4.84,4.84,0,0,1,.84.27c.23.1.5.44.76.47.09,0,.24-.08.33-.1a3.69,3.69,0,0,1,.46-.08c.24,0,.5-.09.76-.12s.52,0,.76,0a2.66,2.66,0,0,1,.7.17.12.12,0,0,0,0,.19l.09-.19A2,2,0,0,1,43.34,21Z"/><path class="e" d="M44.91,25.91l-.24.19A.92.92,0,0,0,44.91,25.91Z"/><path class="e" d="M53.12,26.23c-1.48-1.35-4-1.72-6-1.45a4.22,4.22,0,0,0-2.22,1.15,4.07,4.07,0,0,1,2.27-.54,8.39,8.39,0,0,1,2.89.56,8.11,8.11,0,0,1,4.36,3.17,12.16,12.16,0,0,1,1.24,2.73l.1.1C55.32,29.81,54.84,27.77,53.12,26.23Z"/><path class="e" d="M43.84,21.31A7.82,7.82,0,0,0,41,21.12a5.85,5.85,0,0,0-3.81-.52,2.84,2.84,0,0,0-1.75,1.18,3.91,3.91,0,0,0-.66,1.79c0-.49.69-.95,1.05-1.2a3.4,3.4,0,0,1,1.79-.54,2.75,2.75,0,0,1,1,.12l.07,0a6.69,6.69,0,0,0-1.77,1.94c2.7-3.29,8.19-1.67,10.22,1.42l.4-.64C46.75,23.35,45.63,21.73,43.84,21.31Z"/><path class="a" d="M27,55a3.68,3.68,0,0,1-.69-.22,9.32,9.32,0,0,1-3.41-1.94,4.62,4.62,0,0,1-.43,1.25,6.42,6.42,0,0,1-.5.84c-.2.22-.43.39-.63.63.48-.22,1.08-.61,1.6-.41a1.1,1.1,0,0,1,.62,1.2,3.2,3.2,0,0,1-.35,1.25,13.79,13.79,0,0,0-.72,1.3,7.58,7.58,0,0,1,2.89-2.38c.5-.19.95-.17,1.17.37a2.22,2.22,0,0,1,0,1.3c.1-.24.26-.51.36-.71a9.91,9.91,0,0,1,.67-1.06,2,2,0,0,1,.79-.81l.38-.14C28.14,55.35,27.54,55.2,27,55Z"/><path class="d" d="M33.13,23.38c0-.13-.08-.27-.12-.4a3.05,3.05,0,0,1-.15-.56c-.07-.32-.24-.61-.31-.93-.14.19,0,.71-.26.83s-.57-.64-.67-.78a14.64,14.64,0,0,1-1.1-1.8,12.37,12.37,0,0,0-.78-1.54,15.88,15.88,0,0,1,.36,1.72,12.19,12.19,0,0,1,.31,1.79c0,.37-.12.91-.62.68a6.25,6.25,0,0,1-1.22-.95c.33.46.74,1.4.28,1.89s-1.45-.2-2-.44a2.59,2.59,0,0,1,.93,1.27l.21.67a2.94,2.94,0,0,0,.19.66.89.89,0,0,1,.39-.54,6.33,6.33,0,0,0,.59-.57,2.44,2.44,0,0,1,1.12-.66,6.57,6.57,0,0,1,1.34-.29c.24,0,.45.05.69,0a4.88,4.88,0,0,0,.69-.07,0,0,0,0,1,0,.07Z"/><path class="d" d="M33.08,23.48l0,.07A.16.16,0,0,1,33.08,23.48Z"/><path class="e" d="M28.5,25.44A4.34,4.34,0,0,1,30.83,24a6.73,6.73,0,0,1,3.08-.27,7.49,7.49,0,0,1,2.15.78A5.76,5.76,0,0,0,31.86,23c-1.29.15-3,.74-3.53,1.92A3.25,3.25,0,0,0,28,26.42,3.79,3.79,0,0,1,28.5,25.44Z"/><path class="c" d="M55.82,54a8.62,8.62,0,0,1-4.23,2,6.59,6.59,0,0,1-2.5.15,11.1,11.1,0,0,1-2.48-.82,16.75,16.75,0,0,0,2.29,1.45c3.48,1.58,7.54-1.08,8.06-4.44v-.47A3.34,3.34,0,0,1,55.82,54Z"/><path class="d" d="M32.43,27.75a.45.45,0,0,0-.07.24A.87.87,0,0,0,32.43,27.75Z"/><path class="d" d="M35.32,24.43c-.24.22.19.89-.48.62a2.56,2.56,0,0,1-1.09-.89c0,.27.19.49.21.79a1.07,1.07,0,0,1-.24.78c-.48.64-1.14.28-1.74.08a1.45,1.45,0,0,1,.5,1,3.87,3.87,0,0,1,0,.59c0,.1,0,.22,0,.34a2.36,2.36,0,0,1,.64-.66,3.38,3.38,0,0,1,1.08-.71l1.12-.47a2.38,2.38,0,0,1,.59-.07c.27,0,.36-.1.53.09l.09-.24A1.73,1.73,0,0,1,35.32,24.43Z"/><path class="d" d="M26.64,25.88c0-.05.07-.07.09-.12a2.06,2.06,0,0,1-.4-.69,1.92,1.92,0,0,1-.22-.78c-.21.19,0,.54-.41.54a1.21,1.21,0,0,1-.81-.45,15.1,15.1,0,0,1-1.14-1.25c-.34-.42-.57-.91-.91-1.32.24.56.46,1.15.67,1.71s.5,1.11.31,1.58-.79.49-1.19.41a7.38,7.38,0,0,1-1.7-.76c.62.35,1.34,1.3,1.15,2s-1.53.93-2.22.63c.57.32,1.24.45,1.55,1.11a3.11,3.11,0,0,1,.21,1,4.07,4.07,0,0,0,.12.81c0-.27.55-.71.84-.57a7.27,7.27,0,0,1,.05-.78c0-.27.16-.52.21-.79a3.15,3.15,0,0,1,.81-1.55,1.83,1.83,0,0,1,.67-.46,7.33,7.33,0,0,1,.79-.4,2.56,2.56,0,0,1,1.53.15Z"/><path class="e" d="M33.36,27.16A6.1,6.1,0,0,1,35.92,26a9.45,9.45,0,0,1,2-.27,4.72,4.72,0,0,0-4.18.37c-.95.64-2.07,1.89-1.81,3.09A4,4,0,0,1,33.36,27.16Z"/><path class="e" d="M28,26.27v0a2.29,2.29,0,0,1,.12-.37.25.25,0,0,0,0-.13,4.61,4.61,0,0,0-4.92.91,4,4,0,0,0-.31,4.74,3.89,3.89,0,0,1,1.24-4.05A5.06,5.06,0,0,1,26,26.4,5.4,5.4,0,0,1,27,26.2,4.26,4.26,0,0,1,28,26.27Z"/><path class="d" d="M59.68,33.45c-.21-.08-.36.24-.57.12S59,33.1,59,33a3.69,3.69,0,0,1,.45-1.28c-.24.42-1,1.06-1.43.59S57.77,30.6,58,30a3.81,3.81,0,0,1-.52.84c-.17.19-.5.61-.79.69-.64.12-.93-1.18-1-1.58-.26.32-.38.81-.86.89s-.71-.35-.88-.64a1.74,1.74,0,0,1-.43.69,2.41,2.41,0,0,1-.93.19.53.53,0,0,1-.1.25,7.75,7.75,0,0,1,1.74.32,6.62,6.62,0,0,1,1.34.46,6.72,6.72,0,0,1,2.7,1.7c.16.22.31.47.47.69s.27.56.48.61v0C59.23,34.48,59.63,34,59.68,33.45Z"/><path class="e" d="M27.21,27.7a5.56,5.56,0,0,1,3.1-.32,4.52,4.52,0,0,1,1.07.27l-.12-.15A4.39,4.39,0,0,0,27,27a3.41,3.41,0,0,0-2,3.49A3.81,3.81,0,0,1,27.21,27.7Z"/><path class="d" d="M20,33c-.07,0-.14,0-.23,0s-.39-.07-.58-.12a5.48,5.48,0,0,1-1.07-.49c.07.19.45.44.26.63s-.71,0-.93,0a14.48,14.48,0,0,1-2.24-.78,11.13,11.13,0,0,1,2.24,1.64c.74,1-1.1,1.48-1.79,1.65.45,0,1.27.22,1.48.64a1,1,0,0,1,.07.78,6.22,6.22,0,0,1-.43.76c.12,0,.15-.09.24-.09a1.09,1.09,0,0,1,.24.07,2.48,2.48,0,0,1,.5.2,1.83,1.83,0,0,1,.45.39c.12.15.15.39.29.52a4.45,4.45,0,0,1-.12-2,10.66,10.66,0,0,1,.24-1.5,3.54,3.54,0,0,1,.6-1.27A2.88,2.88,0,0,1,20.1,33l0-.1S20,33,20,33Z"/><path class="c" d="M30.38,54.81c-.45,0-.93-.05-1.41-.12A13.31,13.31,0,0,1,26.4,54a9,9,0,0,1-2.25-1.2c-.5-.39-1.59-1-1.45-1.74l-.19.19a.15.15,0,0,0-.07-.14,4.07,4.07,0,0,0,2.33,3.78,7.74,7.74,0,0,0,4.63.64,8.82,8.82,0,0,0,2.44-.84C31.34,54.69,30.88,54.83,30.38,54.81Z"/><path class="e" d="M19.93,40.69a8.62,8.62,0,0,1-1-3.73,5.36,5.36,0,0,1,.86-3.32,13.58,13.58,0,0,1,1.29-1.47l.24-.25A5.6,5.6,0,0,0,18,35a6.48,6.48,0,0,0,.46,4.67,4.1,4.1,0,0,0,1.91,1.81C20.19,41.23,20.05,40.93,19.93,40.69Z"/><path class="a" d="M21.05,48.5a15,15,0,0,1-1.12-3.37,2.7,2.7,0,0,1-1.24.37,3,3,0,0,1-1-.1c.07.1.14.23.19.32a1,1,0,0,1,0,.91,1.72,1.72,0,0,1-.55.79c-.24.19-.53.27-.76.46a1.83,1.83,0,0,1,1.55.08.88.88,0,0,1,.55,1.2,3.1,3.1,0,0,1-1,1.33,8.08,8.08,0,0,1-1.26,1.08,6.57,6.57,0,0,1,2.05-.84,3.34,3.34,0,0,1,1.72-.12c1.07.25.12,1.33-.29,1.79a15.58,15.58,0,0,1,1.48-1c.26-.12.55-.2.81-.32a2.61,2.61,0,0,0,.36-.19A20.56,20.56,0,0,1,21.05,48.5Z"/><path class="a" d="M48.13,55.08c0-.15.1-.27.27-.27a.62.62,0,0,1,.4.2c0-.1-.12-.18-.19-.25s-.12-.22-.19-.32l-.21-.34a.29.29,0,0,0-.08-.1,3.23,3.23,0,0,1-1.59,1.3,7.31,7.31,0,0,1-2.3.32H44a4.75,4.75,0,0,1-.53,0c0,.17-.07.34-.11.54v0a1.38,1.38,0,0,1-.1.22c0,.07,0,.12-.07.19a.4.4,0,0,1-.1.17c.31-.22.74-.39,1,0a1.2,1.2,0,0,1,.24.54c0,.18-.07.35,0,.5.19-.37.5-.86,1-.62a.85.85,0,0,1,.36.49,1.77,1.77,0,0,1,.17.72,2.2,2.2,0,0,1,.24-1.06.61.61,0,0,1,.69-.34c.26.09.4.44.52.66a12.47,12.47,0,0,1,.55,1.18c-.09-.44-.26-.89-.33-1.35a2.08,2.08,0,0,1,0-1.16.38.38,0,0,1,.57-.19,1.75,1.75,0,0,1,.43.51A2.5,2.5,0,0,1,48.13,55.08Z"/><path class="a" d="M34.37,54.29a3.24,3.24,0,0,1-.67.27,2.8,2.8,0,0,1-1.22,0A4.48,4.48,0,0,1,31,54.15v.34a4.07,4.07,0,0,1-.07.61c-.05.17-.14.37-.21.54a1.54,1.54,0,0,0-.22.57,1,1,0,0,1,.38-.39c.15-.08.48-.15.6,0s.07.57.05.71-.05.42-.07.64a3.44,3.44,0,0,1,.59-1.1c.12-.18.34-.67.57-.47a8.71,8.71,0,0,1-.23,2.73,2.49,2.49,0,0,0,.28-.82c.15-.39.29-.73.46-1.12.07-.18.57-1.5.81-1.38a.82.82,0,0,0,.07.39A4.72,4.72,0,0,1,34.37,54.29Z"/><path class="e" d="M52.31,31.48a10.12,10.12,0,0,1,3.51.91,9.07,9.07,0,0,1,3,2.43,11.19,11.19,0,0,1,.72,1A6.86,6.86,0,0,0,52,31.21a7.54,7.54,0,0,0-.88.27A6.75,6.75,0,0,1,52.31,31.48Z"/><path class="a" d="M50.71,60.58a7.39,7.39,0,0,1-1,.34l-1,.3a12.42,12.42,0,0,1-3.15.51,6.29,6.29,0,0,1-1.88-.14h0A10.92,10.92,0,0,1,42,61.24a6.21,6.21,0,0,1-.15,1.38,3.27,3.27,0,0,1,0,.44,4.05,4.05,0,0,1-.12.47.73.73,0,0,1,.19-.2,3.09,3.09,0,0,1,.48-.25.75.75,0,0,1,.85.2,1.41,1.41,0,0,1,.39.79c.07.29,0,.58,0,.88a1.19,1.19,0,0,1,.47-.81c.19-.15.58-.29.79-.12.43.34.26,1.27.26,1.74.15-.66.5-2,1.51-1.55.38.15.52.57.64.91a10.74,10.74,0,0,1,.41,1.25c0-.56,0-1.1,0-1.67,0-.41.12-1.08.53-1.32.76-.47,1.38,1,1.57,1.52a6.72,6.72,0,0,1,.1-3.12c.11-.29.26-.61.64-.54a1.21,1.21,0,0,1,.6.4C51,61.24,50.83,60.92,50.71,60.58Z"/><path class="c" d="M52.38,59.15a8,8,0,0,1-1.29,1A7.44,7.44,0,0,1,49,61a15.48,15.48,0,0,1-3.34.39c-1.77.07-3.87-.2-5.16-1.38A4.16,4.16,0,0,0,43,62.27c3.56,1.53,7.83-.34,9.69-3.38C52.55,59,52.45,59.08,52.38,59.15Z"/><path class="a" d="M37.49,58.91a4.41,4.41,0,0,0-.43.44,6.56,6.56,0,0,1-2.65,1.43,6.36,6.36,0,0,1-1.12.29c-.24,0-.47-.1-.71-.12a1.88,1.88,0,0,1-.7-.2c-.21-.1-.42-.17-.66-.27a2.82,2.82,0,0,1-.6-.39,5.5,5.5,0,0,1-1.1-.89,3.28,3.28,0,0,1-.59,2,1.09,1.09,0,0,1,1.59.1c.39.52,0,.91-.11,1.4A2.79,2.79,0,0,1,31.6,62a.8.8,0,0,1,.91.39,3.08,3.08,0,0,1-.08,2.19c.29-.79,1.24-2.16,2.29-1.57a1.86,1.86,0,0,1,.7,1.57,7.69,7.69,0,0,1-.05,1.59,11.27,11.27,0,0,1,.86-2.11,7.26,7.26,0,0,1,1.17-1.87c.35-.34.81-.46,1,.1a3.92,3.92,0,0,1,.09,1.53,6.41,6.41,0,0,1,.36-1.75,4.71,4.71,0,0,1,.62-1.25c.12-.17.43-.56.67-.39s.19.51.17.76a2.3,2.3,0,0,1,.14-.42,5.39,5.39,0,0,1,.22-.64c0-.1.07-.2.11-.32A15.88,15.88,0,0,1,37.49,58.91Z"/><path class="c" d="M45.63,57.76a2.77,2.77,0,0,1-1.65.83,18.22,18.22,0,0,1-4.77.64,4.59,4.59,0,0,1-3.75-3.12,4.57,4.57,0,0,0,1.32,2.55,2.58,2.58,0,0,1-1.36,1.53,4.87,4.87,0,0,1-2.82.39,4.3,4.3,0,0,1-2.27-1.3A5.15,5.15,0,0,1,29,56.58a4.81,4.81,0,0,0,.52,3,4.53,4.53,0,0,0,4.54,2.55c1.81-.05,3.72-.59,4.7-2.06l.43.15A6,6,0,0,0,41.88,60,6.57,6.57,0,0,0,45.63,57.76Z"/><path class="c" d="M21.55,48.77a7.21,7.21,0,0,1-1.26-2.85,4.65,4.65,0,0,1,0-1.82,5,5,0,0,1,.21-.73c.05-.1.15-.37.12-.4-1.17,1.52-1.88,3-1.26,4.86a5.41,5.41,0,0,0,3.46,3.76,7.07,7.07,0,0,0,2.86.08A7.35,7.35,0,0,1,21.55,48.77Z"/><path class="c" d="M31.5,54.1A7.14,7.14,0,0,1,29,52.94a3.77,3.77,0,0,0,3.29,2.14,5.11,5.11,0,0,0,2.56-.47,3.24,3.24,0,0,0,1.4-1.32C35.06,54.32,32.89,54.42,31.5,54.1Z"/><path class="c" d="M48.35,53a4.22,4.22,0,0,1-2.24,1.89,6.31,6.31,0,0,1-4.35-.07A5.4,5.4,0,0,0,45.68,56a3.6,3.6,0,0,0,3.12-3.71C48.63,52.62,48.47,52.87,48.35,53Z"/><path class="a" d="M63.74,44.64c-.29-.22-.67-.29-.93-.54a1.52,1.52,0,0,1-.36-.42,5.87,5.87,0,0,1-2.93,4.15,2.25,2.25,0,0,1,.57,1.33c.14-.29.14-.59.38-.86a.8.8,0,0,1,.76-.24,2.37,2.37,0,0,1,.81.36c.24.18.41.42.62.59-.14-.56-.78-1.37-.42-1.94s1-.17,1.5,0a5.26,5.26,0,0,1-1.05-1.89C62.55,44.49,63.21,44.42,63.74,44.64Z"/><path class="c" d="M61.62,49.58a5.93,5.93,0,0,1-3.23,1.74c-1.64.3-2.84-.46-4.08-1.37A4.58,4.58,0,0,0,56,51.52a4,4,0,0,0,2.44.44A3.74,3.74,0,0,0,61.62,49.58Z"/><path class="c" d="M62.47,42.51c0,.09,0,.17,0,.27a6.31,6.31,0,0,1-1.07,2.89,6.68,6.68,0,0,1-3.7,2.53C60.71,48.57,63.57,45.21,62.47,42.51Z"/><path class="a" d="M54.39,4.84A2.52,2.52,0,0,0,52,2.23a4.23,4.23,0,0,0-.5,0v0A2.3,2.3,0,0,0,49.14,0,2.34,2.34,0,0,0,47,1.33a2,2,0,0,0-.88-.5A3.91,3.91,0,0,0,44.6.52,3.62,3.62,0,0,0,40.93,4.1a3.55,3.55,0,0,0,1.91,3.14,2,2,0,0,0-.27,1,2.08,2.08,0,0,0,2.1,2.06,2.19,2.19,0,0,0,.77-.14c.33,1.81,1.29,6.53,1.29,6.53l.93-6.56a0,0,0,0,0,0,0l-.48,5.72L49.06,11c0-.13.1-.22.15-.35a2.76,2.76,0,0,0,1.6.52,2.64,2.64,0,0,0,2.64-2.6,2.57,2.57,0,0,0-.4-1.4A2.55,2.55,0,0,0,54.39,4.84Z"/><path class="f" d="M53.19,3.39A2,2,0,0,0,52,2.77a1.43,1.43,0,0,0-.71.13l0,0a2.47,2.47,0,0,0-1-2A2.2,2.2,0,0,0,48,1a2,2,0,0,0-.77.93,2.19,2.19,0,0,1,3.56,0,3,3,0,0,1,.38,1l-.43.22-.19,0a4.47,4.47,0,0,1,1.15.2,2.22,2.22,0,0,1,1.19,1.47A2.27,2.27,0,0,1,52.57,7a3.72,3.72,0,0,0,.88-1A2.15,2.15,0,0,0,53.19,3.39Z"/><path class="f" d="M48.35,2.51a1.19,1.19,0,0,0-.65,0,4.14,4.14,0,0,0-1.45-1.09A4.18,4.18,0,0,0,44,1.25a2.85,2.85,0,0,0-1.89,1.08,2.76,2.76,0,0,0-.38,2.24,4.14,4.14,0,0,0,1.5,2.13,2.82,2.82,0,0,1-.69-2,2.7,2.7,0,0,1,.76-1.62,3.67,3.67,0,0,1,3.08-1,3.8,3.8,0,0,1,1.31.42,1.93,1.93,0,0,0-1.05.79,2.66,2.66,0,0,0-.31.66,2.52,2.52,0,0,1,3.34-.47A2.3,2.3,0,0,0,48.35,2.51Z"/><path class="g" d="M52.86,7.56a2.64,2.64,0,0,1-.26.91A2.47,2.47,0,0,1,51,9.72a2.08,2.08,0,0,1-1.81-.19,1.52,1.52,0,0,0,.55-.69A1.38,1.38,0,0,0,51,8.79a1.88,1.88,0,0,1-1.28-.47,2.15,2.15,0,0,1-.58-.81.18.18,0,0,1,0-.09v0l-.08-.2a2,2,0,0,0,.53,1.55,3.41,3.41,0,0,1-1.74.56,2.71,2.71,0,0,1-1.15-.22,2,2,0,0,1-1-1,3.47,3.47,0,0,0,.19.67l-.07,0a1.79,1.79,0,0,1-.93.35,2,2,0,0,1-1-.25,1.66,1.66,0,0,1-.59-1.84,1.78,1.78,0,0,0-.26,1.32,1.53,1.53,0,0,0,1.4,1.55,2.38,2.38,0,0,0,1.86-.52,2.06,2.06,0,0,0,2,.55,2.87,2.87,0,0,0,.86-.37,2.06,2.06,0,0,0,.93,1,2.16,2.16,0,0,0,2.41-.64A2.41,2.41,0,0,0,52.86,7.56Z"/><path class="a" d="M25.2,19.89l-.66-1.47h0l-1.89-4.15A1.42,1.42,0,0,0,23,12.2,3.71,3.71,0,0,0,24,9.67a3.3,3.3,0,0,0-3.05-3.51,2.37,2.37,0,0,0-.91.17,2.36,2.36,0,0,0-2.36-2.28A2.42,2.42,0,0,0,16,4.69a2.42,2.42,0,0,0-1.63-.64A2.37,2.37,0,0,0,12,6.24a3,3,0,0,0-.67-.08A3.68,3.68,0,0,0,8,10.07a4.07,4.07,0,0,0,1.31,3.07v.1a3.68,3.68,0,0,0,3.39,3.9,3.26,3.26,0,0,0,.83-.12,3.14,3.14,0,0,0,5.47.05l4.1,3.31-3-4.17c.19.12.39.37.55.49a.63.63,0,0,1,.19.17l1.79,1.74a11.7,11.7,0,0,0,1.12,1.11l.79.76-2-3.61Z"/><path class="f" d="M23.2,8.67a3.16,3.16,0,0,0-.72-1.35,2.17,2.17,0,0,0-1.31-.59A2,2,0,0,0,19.81,7a2.59,2.59,0,0,0-.95-1.91,2.24,2.24,0,0,0-2.25-.2,1,1,0,0,0-.45.42,2.07,2.07,0,0,0-1.86-.88A1.86,1.86,0,0,0,12.7,5.6a2.13,2.13,0,0,0,0,1.25c-.07-.61.53-1.15,1-1.4a2.28,2.28,0,0,1,1.83,0c.1,0,.22.15.31.2a.64.64,0,0,0-.28.15,1.57,1.57,0,0,0-.5.85.27.27,0,0,0,0,.15,1.47,1.47,0,0,0-1.38,0,1.32,1.32,0,0,0-.38.32,3,3,0,0,0-1.7-.54,3.26,3.26,0,0,0-1.93.76A3.21,3.21,0,0,0,8.76,11a4.82,4.82,0,0,0,1.34,1.74,2.08,2.08,0,0,0-.1.59,3.22,3.22,0,0,0,1.36,2.92,2.31,2.31,0,0,0,1.46.22,2.78,2.78,0,0,1-.69-.39,3.76,3.76,0,0,1-.46-.32.72.72,0,0,1-.11-.15,3,3,0,0,1-.77-1.27,3.85,3.85,0,0,1,.65-3.44l0,0a4,4,0,0,0-1.29,1.85,4.34,4.34,0,0,1-.57-3.81,2.62,2.62,0,0,1,2.2-1.84,2.92,2.92,0,0,1,1.55.17,1.62,1.62,0,0,0-.31,1,2.22,2.22,0,0,0,.07.57,1.46,1.46,0,0,1,.14-.67,2.48,2.48,0,0,1,.43-.64A1.27,1.27,0,0,1,15,7.2a2.32,2.32,0,0,0,.07.56,1.81,1.81,0,0,1,.14-.49A1.94,1.94,0,0,1,16.38,6,2.23,2.23,0,0,1,18,6a1.5,1.5,0,0,0-.55-.32,3.1,3.1,0,0,0-1-.12,1,1,0,0,0-.24,0,2,2,0,0,1,1.43-.46,2.18,2.18,0,0,1,1.63,1,5.81,5.81,0,0,1,.47.89l-.19.12a4,4,0,0,1,1.29.07A4.22,4.22,0,0,1,22.08,8,3.88,3.88,0,0,1,23,10.53a2.42,2.42,0,0,1-.17,1.38,4,4,0,0,0,.6-1.55A5.71,5.71,0,0,0,23.2,8.67Z"/><path class="g" d="M22.27,11.66h.05s0,0-.05,0Z"/><path class="g" d="M22.32,11.67c.43.39.21,1.1,0,1.52a1.22,1.22,0,0,1-.47.51.82.82,0,0,1-.39.18,1.2,1.2,0,0,0-.35.09,1.28,1.28,0,0,0,.43.1.86.86,0,0,1-.27.66.59.59,0,0,1-.62.2h-.14l.07-.07A2.21,2.21,0,0,0,21.08,13a1.42,1.42,0,0,0,.83-1.08,1.85,1.85,0,0,1-.36.42,1.69,1.69,0,0,1-.57.24,1.49,1.49,0,0,1-1.43-.27,1.32,1.32,0,0,0,1.38.74L21,13a5.11,5.11,0,0,1-.28.68,2.79,2.79,0,0,1-1.36,1.13,2,2,0,0,1-1.86.1,2.69,2.69,0,0,0,.78.49,1.91,1.91,0,0,1-.31,1,1.56,1.56,0,0,1-.86.76,3.88,3.88,0,0,1-1.12.15,2.61,2.61,0,0,1-2.05-1.15,2.94,2.94,0,0,0,1,1.22,2.64,2.64,0,0,0,2.6.27,2.34,2.34,0,0,0,1.07-.95,2.56,2.56,0,0,0,.31-1.18,2.07,2.07,0,0,0,1.38-.47,1,1,0,0,0,1.15.25A1.34,1.34,0,0,0,22.1,14,1.34,1.34,0,0,0,22.32,11.67Z"/><path class="g" d="M21.91,11.91s0,0,0,0v0Z"/><path class="g" d="M22,11.91v0s0,0,0,0Z"/><path class="a" d="M9.34,38.75a.2.2,0,0,1,.09,0l.31,0H10a1.57,1.57,0,0,0,.33,0l2.77-.3-2.17-.69-.36-.12L9.26,37.1s0,0,0,0a2.4,2.4,0,0,0,.57-1.69,2.37,2.37,0,0,0-2.55-2.24,2.43,2.43,0,0,0-1.86,1.06,2,2,0,0,0-3.3,1.67c0,.07,0,.14,0,.22A3,3,0,0,0,0,39.34a3,3,0,0,0,3,3A2.57,2.57,0,0,0,4.09,42a.79.79,0,0,1,.16-.08,2.85,2.85,0,0,0,2.77,2,3,3,0,0,0,2.6-3.32c0-.1,0-.22,0-.32l3.53-1.05Z"/><path class="f" d="M5.33,41.16a1.59,1.59,0,0,1-.79-.27A1.59,1.59,0,0,1,4,39.73a1.41,1.41,0,0,0,.28,1.45,2,2,0,0,1-1.48.07A2.33,2.33,0,0,1,1.61,40a2.48,2.48,0,0,1,.62-3,3.71,3.71,0,0,1,1.59-.47l.05,0-.14,0a6.91,6.91,0,0,0-1-.1,1.5,1.5,0,0,1,.71-1.52,2.19,2.19,0,0,1,1.77-.17,1.87,1.87,0,0,1,.74.44l0,0A2.23,2.23,0,0,0,4.11,34a1.52,1.52,0,0,0-1.53,1.18,2,2,0,0,0,.15,1.21,2,2,0,0,0-1,.24A2.75,2.75,0,0,0,.39,38.38a3,3,0,0,0,2.05,3.49A2.33,2.33,0,0,0,4.3,41.3a1.13,1.13,0,0,0,1.39-.14C5.61,41.13,5.49,41.18,5.33,41.16Z"/><path class="g" d="M9.29,36.69a2.3,2.3,0,0,0-.67-2.75,2.06,2.06,0,0,0-1.43-.47A2,2,0,0,0,6.14,34,2.27,2.27,0,0,1,7,33.79a1.91,1.91,0,0,1,1.72,1.45,2.66,2.66,0,0,1-.53,2.53,3.62,3.62,0,0,0,.41-.27,1.33,1.33,0,0,1,.26.46,1.26,1.26,0,0,1,0,.64,1.42,1.42,0,0,1-.29.59.56.56,0,0,1-.26.22.23.23,0,0,1-.12,0,1.3,1.3,0,0,0-.81-1.21.08.08,0,0,0,0,.05,1.47,1.47,0,0,1,.07.17,1.44,1.44,0,0,1-.14,1.7,1.27,1.27,0,0,1-.41.27,1.28,1.28,0,0,0,1.17-.66.66.66,0,0,0,.07-.3c.12,0,.24,0,.36-.05a3.38,3.38,0,0,1,.17,1.3,2.28,2.28,0,0,1-1.46,1.92c-1,.29-1.76-.42-2.36-1.13A3.22,3.22,0,0,0,6.07,43a2.24,2.24,0,0,0,1.52.27,1.73,1.73,0,0,0,1.05-.81,3.16,3.16,0,0,0,.55-1.57,3.3,3.3,0,0,0-.38-1.53.9.9,0,0,0,.5-.64,1.39,1.39,0,0,0-.43-1.47A1.24,1.24,0,0,0,9.29,36.69Z"/><path class="a" d="M72.64,41.06l-.1.07-.31,0H72l-.34.07-2.76.42,2.19.62.36.09,1.26.37s0,0,0,0a2.4,2.4,0,0,0-.52,1.71,2.42,2.42,0,0,0,4.46,1,2,2,0,0,0,3.24-1.79c0-.07,0-.15,0-.22a3.06,3.06,0,0,0,2-3.34,3,3,0,0,0-3.08-2.85,2.59,2.59,0,0,0-1.12.39l-.17.08a2.77,2.77,0,0,0-2.84-1.89,3,3,0,0,0-2.48,3.41,1.77,1.77,0,0,0,0,.32L68.8,40.79Z"/><path class="f" d="M76.55,38.5a1.57,1.57,0,0,1,.79.25A1.63,1.63,0,0,1,78,39.88a1.42,1.42,0,0,0-.33-1.43,2.19,2.19,0,0,1,1.47-.12,2.23,2.23,0,0,1,1.2,1.23,2.47,2.47,0,0,1-.53,3,3.12,3.12,0,0,1-1.57.52s0,0,0,0l.14,0a6.87,6.87,0,0,0,1,.08,1.52,1.52,0,0,1-.65,1.55,2.22,2.22,0,0,1-1.76.24,1.68,1.68,0,0,1-.77-.42l0,0a2.31,2.31,0,0,0,1.86,1,1.5,1.5,0,0,0,1.48-1.23,2.17,2.17,0,0,0-.19-1.2,2.67,2.67,0,0,0,1-.27,2.63,2.63,0,0,0,1.22-1.77,3,3,0,0,0-2.17-3.41,2.37,2.37,0,0,0-1.84.63,1.11,1.11,0,0,0-1.38.23A.48.48,0,0,1,76.55,38.5Z"/><path class="g" d="M72.76,43.12a2.35,2.35,0,0,0,.76,2.73,2.08,2.08,0,0,0,1.46.39,1.78,1.78,0,0,0,1-.59,2.71,2.71,0,0,1-.78.24,1.91,1.91,0,0,1-1.77-1.4,2.72,2.72,0,0,1,.43-2.55c-.14.1-.26.2-.38.3a1.31,1.31,0,0,1-.26-.45,1.21,1.21,0,0,1,0-.63,1.06,1.06,0,0,1,.26-.59,1,1,0,0,1,.24-.25l.12,0a1.22,1.22,0,0,0,.83,1.16.08.08,0,0,0,0,0,1.3,1.3,0,0,0-.1-.15,1.45,1.45,0,0,1,.08-1.69,1.73,1.73,0,0,1,.4-.3,1.33,1.33,0,0,0-1.14.71.63.63,0,0,0,0,.3l-.36.07A3.28,3.28,0,0,1,73.24,39a2.24,2.24,0,0,1,1.38-2c1-.32,1.76.37,2.39,1.06a3.26,3.26,0,0,0-1.29-1.41,2.39,2.39,0,0,0-1.53-.22,1.76,1.76,0,0,0-1,.84,3.11,3.11,0,0,0-.5,1.6,2.74,2.74,0,0,0,.45,1.49.9.9,0,0,0-.48.67,1.4,1.4,0,0,0,.48,1.44A1.5,1.5,0,0,0,72.76,43.12Z"/><path class="a" d="M23.84,74.18a1.74,1.74,0,0,0,0-2.87l4.05-7.86-3.17,3.44,2.93-4.72-5.15,4.6-.12,0,3.77-5.6-5.65,5.47a4,4,0,0,0-3.61-2.21,6,6,0,0,0-.62,0h0A3.88,3.88,0,0,0,12.89,68h-.21a2.64,2.64,0,0,0-2.53,2.72,2.76,2.76,0,0,0,.93,2.11A3.8,3.8,0,0,0,9.26,76a3.92,3.92,0,0,0,4,3.83,3.51,3.51,0,0,0,.72-.07,3.29,3.29,0,0,0,2.86,1.57A3.23,3.23,0,0,0,20,79.07a2.26,2.26,0,0,0,1.15.22,1.71,1.71,0,0,0,.4,0,3.14,3.14,0,0,0,3.27-3A2.58,2.58,0,0,0,23.84,74.18Z"/><path class="f" d="M23.41,74.77a.17.17,0,0,0,0,.12,2.87,2.87,0,0,1-.14,1.9,2,2,0,0,1-1.87,1.52A3.82,3.82,0,0,1,19,77.45s0,0-.07,0a3.57,3.57,0,0,0,.48,1,2.89,2.89,0,0,1-.69,1.11,2.22,2.22,0,0,1-1.24.39,2.72,2.72,0,0,1-2.32-1,3.21,3.21,0,0,1-.52-1l.36.22a2,2,0,0,0,1.55.08,2.66,2.66,0,0,1-2.15-1.11,3.29,3.29,0,0,1-.31-1.45,1.82,1.82,0,0,0-.12.81,2.31,2.31,0,0,0,.24,1,1.21,1.21,0,0,0,.33.39c0,.22-.05.42-.05.64a3.18,3.18,0,0,1-1.5-.12,3.16,3.16,0,0,1-1.45-1.16,3.42,3.42,0,0,1-.36-3.41,3.29,3.29,0,0,1,.88-1.13,0,0,0,0,1,0,0v0a1.79,1.79,0,0,0,.22.13,1.34,1.34,0,0,1-.24-.32v0a2.22,2.22,0,0,1-.43-1.08,2.42,2.42,0,0,1,0-.76A2.89,2.89,0,0,1,13,68.54a1.57,1.57,0,0,0-.93.09,1.7,1.7,0,0,0-.85.76,2.56,2.56,0,0,0,.09,2.46,2.23,2.23,0,0,0,.74.81,3,3,0,0,0-1.62,1.16,4,4,0,0,0-.53,2.33,3.19,3.19,0,0,0,2.63,2.9,3,3,0,0,0,2-.5,2.1,2.1,0,0,0,.17.84A2.42,2.42,0,0,0,16,80.57,2.53,2.53,0,0,0,19,80a2.9,2.9,0,0,0,.52-1.47A2,2,0,0,0,20,79a2.59,2.59,0,0,0,1.84.19A2.52,2.52,0,0,0,24,76.74,3.9,3.9,0,0,0,23.41,74.77Z"/><path class="g" d="M23.89,71.75a1.47,1.47,0,0,0-.91-.49,2.89,2.89,0,0,0,.41-1.15,2.7,2.7,0,0,0-1.34-2.73,3.32,3.32,0,0,0-2,0,2.22,2.22,0,0,0-.19-.41,3.93,3.93,0,0,0-1.55-1.58A3.84,3.84,0,0,0,16.18,65a2.83,2.83,0,0,0-1.9,1,4.54,4.54,0,0,0-.84,2,2.91,2.91,0,0,1,.91-1.06,4.09,4.09,0,0,1,5.08.52,5.26,5.26,0,0,1,1.05,2.13,1.72,1.72,0,0,0-.72-.07,5.18,5.18,0,0,0-1.31.39l0,0a3,3,0,0,1,3.1,1.4A3.66,3.66,0,0,1,22,73.89c0,.12-.07.27-.09.39a3.09,3.09,0,0,0,.71-1.64,2.75,2.75,0,0,0,0-.81h.05c.28,0,.5.17.69.34a1.28,1.28,0,0,1,.33.76,1.24,1.24,0,0,1-.19.84,1.63,1.63,0,0,1-.62.44,2,2,0,0,0,1-.49A1.61,1.61,0,0,0,23.89,71.75Zm-1.5-.56a2,2,0,0,0-.19-.35,4.14,4.14,0,0,0-1.1-1,3.67,3.67,0,0,0-.57-.27.18.18,0,0,0,0-.12,10.52,10.52,0,0,0-.21-1.25A.88.88,0,0,1,21,68a2.83,2.83,0,0,1,.86.45,1.78,1.78,0,0,1,.65.76,4.46,4.46,0,0,1,.36,2A2.44,2.44,0,0,0,22.39,71.19Z"/><path class="a" d="M76.38,76.59a3.14,3.14,0,0,0,.91-2.19,3,3,0,0,0-2.05-2.89,3.36,3.36,0,0,0,.19-1.08,3.3,3.3,0,0,0-3.29-3.32,5.39,5.39,0,0,0-.6,0,2.54,2.54,0,0,0-2.24-1.33,2.5,2.5,0,0,0-1.7.67l-4.67-4,1.52,3.38-2.86-3.09a.91.91,0,0,0-.17-.17l-.83-.91L62.38,66l-4.06-4.76L62,70.6a2,2,0,0,0-1.29,1.86,2,2,0,0,0,.62,1.45,5.1,5.1,0,0,0-2.14,4.28c0,2.72,1.93,4.91,4.29,4.91a3.85,3.85,0,0,0,1.94-.54A2.59,2.59,0,0,0,67.75,84a2.56,2.56,0,0,0,2.38-1.57,4.31,4.31,0,0,0,7.33-3A4.24,4.24,0,0,0,76.38,76.59Z"/><path class="g" d="M70.44,66.89a2.84,2.84,0,0,0-1.36-.44A2,2,0,0,0,67,68.27a5.05,5.05,0,0,0,.28,1.84,2.31,2.31,0,0,1,3-2.88,2.63,2.63,0,0,1,1,.64A2.89,2.89,0,0,0,70.44,66.89Z"/><path class="g" d="M71.33,67.87s0,0,0,0l0,0Z"/><path class="g" d="M71.35,67.9h.07c0-.05,0,0,0-.05Z"/><path class="g" d="M74.71,69.59a2.4,2.4,0,0,0-1.74-2,2.17,2.17,0,0,0-1.26,0,1.5,1.5,0,0,0-.72.71,1.35,1.35,0,0,1,.86-.29,2.68,2.68,0,0,1,1.91.84,3.33,3.33,0,0,1,.67,1,2.88,2.88,0,0,1,.07,1.37A4,4,0,0,0,74.71,69.59Z"/><path class="g" d="M66.12,68a2.81,2.81,0,0,0-1,.12,1.94,1.94,0,0,0-1.19,1.57A3.2,3.2,0,0,0,64,70.79a2.66,2.66,0,0,1,.72-1.57,3.38,3.38,0,0,1,1.46-.88,3.91,3.91,0,0,1,.9-.07l.07-.25A7.31,7.31,0,0,1,66.12,68Z"/><path class="g" d="M67.13,68.19v.08A.06.06,0,0,0,67.13,68.19Z"/><path class="g" d="M67.1,68.29l-.07.25a.34.34,0,0,0,.12-.27v0Z"/><path class="g" d="M65.65,70.89v-.1s0,0,0,0a2.83,2.83,0,0,0-1.45-.47,4.22,4.22,0,0,0-1.44.27,2,2,0,0,0-1.21,2.36,1.87,1.87,0,0,0,1,1.2,2,2,0,0,1,0-2.38,2.65,2.65,0,0,1,1.93-1,1.5,1.5,0,0,1,1.25.24S65.67,70.92,65.65,70.89Z"/><path class="g" d="M66.2,70.79a3.15,3.15,0,0,1,2-.68,2,2,0,0,0-1.58-.18,1.83,1.83,0,0,0-1.28,1.55,3.15,3.15,0,0,0,0,.81A2,2,0,0,1,66.2,70.79Z"/><path class="g" d="M62.14,80a4.43,4.43,0,0,1-.91-1.59,5.25,5.25,0,0,1,.12-3.56,3.72,3.72,0,0,1,.86-1s0-.1-.05-.13A4.71,4.71,0,0,0,61,74.7a4.47,4.47,0,0,0-.86,1.91c-.24,1.4.14,3.27,1.48,4a2.27,2.27,0,0,0,2-.08A1.58,1.58,0,0,1,62.14,80Z"/><path class="f" d="M76.74,78.55a5.08,5.08,0,0,0-.93-2.16s0-.09-.09-.17a1.9,1.9,0,0,0,.66-.66,3,3,0,0,0,.1-2.73,2.25,2.25,0,0,0-1-1,2.1,2.1,0,0,0-1.1-.17A2.85,2.85,0,0,1,76.15,74a1.94,1.94,0,0,1,0,.34,2.46,2.46,0,0,1-1,2.09,2.32,2.32,0,0,0,0-.57,2.57,2.57,0,0,0-.34-1,2.92,2.92,0,0,1-1,2.83,2.77,2.77,0,0,1-1.65.44,1.83,1.83,0,0,0,.88.25,2,2,0,0,0,.88-.22.54.54,0,0,1,0,.22v.51a1.83,1.83,0,0,1-.47.94,1.66,1.66,0,0,1-.77.46,1.81,1.81,0,0,1-.88-.12,3.15,3.15,0,0,0,1.12.37,2.05,2.05,0,0,0,1.81-1.18,2.48,2.48,0,0,0,.1-2.19.12.12,0,0,1,0,0,2.61,2.61,0,0,0,.22-.63l.33-.15c0,.07.07.15.12.22a1.22,1.22,0,0,1,.1.24c0,.08.07.18.09.25a1.18,1.18,0,0,1,.07.2,4.34,4.34,0,0,1,.15,1,5,5,0,0,1-.53,2,3.34,3.34,0,0,1-1.43,1.45,3.92,3.92,0,0,1-2,.34,3,3,0,0,1-1.52-.57,1.55,1.55,0,0,0,1.14-1.37C71,81.6,69,81.45,68,80.47a2.74,2.74,0,0,0,.62.79,2,2,0,0,0,1.26.46,2,2,0,0,1-.45.57,2,2,0,0,1-1.55.71,2.45,2.45,0,0,1-1.82-1.11A1.15,1.15,0,0,0,67,81a1.39,1.39,0,0,1-1.17.51,1.49,1.49,0,0,1-.79-.24,1,1,0,0,1-.36-.61,1,1,0,0,0,.12.68,1.13,1.13,0,0,0,1.15.57,2.77,2.77,0,0,0,.43,1,1.93,1.93,0,0,0,2.24.66A2.45,2.45,0,0,0,70,81.72l.41-.07A4.13,4.13,0,0,0,72.23,83a3.33,3.33,0,0,0,4.11-1.67A4.93,4.93,0,0,0,76.74,78.55Z"/><path class="a" d="M77,19a2.41,2.41,0,0,0-2.18-3.44,2.4,2.4,0,0,0-1.57.59,2,2,0,0,0-3.77,1.05,2.35,2.35,0,0,0,.14.79,1.29,1.29,0,0,0-1,1.28,1.31,1.31,0,0,0,.67,1.15l-5.2,5.16,5.75-2.43a2.8,2.8,0,0,0,5.46.71,2.59,2.59,0,0,0,.63.1,2.51,2.51,0,0,0,2.41-2.61A2.6,2.6,0,0,0,77,19Z"/><path class="f" d="M75.79,17.14a2.78,2.78,0,0,1,.64,2.06,2.2,2.2,0,0,0,.26-1.32,2,2,0,0,0-1.4-1.82,2.82,2.82,0,0,0-2.17.59.89.89,0,0,0-.41-.15,1.39,1.39,0,0,0-2.62,0,1.89,1.89,0,0,0,0,1.08,1.38,1.38,0,0,1,.65-1.5,1.09,1.09,0,0,1,1.33.49,1.33,1.33,0,0,1-.19.05,2,2,0,0,1,1,.56,1.92,1.92,0,0,1,.38,1.16,1.27,1.27,0,0,0-.09-1.52c-.05-.05-.07-.08-.12-.1a4.26,4.26,0,0,1,.93-.25A2.43,2.43,0,0,1,75.79,17.14Z"/><path class="f" d="M77.67,20.77A2.16,2.16,0,0,0,77,19.5a1.42,1.42,0,0,0-1.08-.32.91.91,0,0,0-.55-.91,1.3,1.3,0,0,1,.15,1.18,1.72,1.72,0,0,1-.53.66,1,1,0,0,0,.91-.76.25.25,0,0,1,0-.12,2.58,2.58,0,0,1,.81.49A1.85,1.85,0,0,1,77,21.88,2,2,0,0,1,75.12,23a2.89,2.89,0,0,0,1.53.17C77.65,23,77.86,21.68,77.67,20.77Z"/><path class="g" d="M72.3,24.56a2.18,2.18,0,0,1-1.16-2.19h.07a.87.87,0,0,0,.43-.1.33.33,0,0,0,.16.12,1.22,1.22,0,0,0,1.36,0,.75.75,0,0,1-.21,0,1.4,1.4,0,0,1-.72-.15,1.54,1.54,0,0,1-.83-1.1,1.5,1.5,0,0,0,.09,1s-.09,0-.14-.08a2.79,2.79,0,0,1-.72-.56,1.61,1.61,0,0,1-.35-1.52,1.59,1.59,0,0,0-.17.31.76.76,0,0,1-.33-.27,1.23,1.23,0,0,1-.2-1,2.07,2.07,0,0,1,.53-.76.82.82,0,0,0-.93.64,1.36,1.36,0,0,0,.45,1.35.8.8,0,0,0,.46.12,1.67,1.67,0,0,0,0,1,1.73,1.73,0,0,0,.57.88,1.94,1.94,0,0,0-.19.93,2.35,2.35,0,0,0,.59,1.4,1.85,1.85,0,0,0,2.51.4,2.47,2.47,0,0,0,.74-.77A1.75,1.75,0,0,1,72.3,24.56Z"/><path class="a" d="M70.73,53.36l-1.6-1.42-1.79,1.13.81-2-1.6-1.4,2.1.17.82-2,.47,2.11,2.13.17-1.82,1.16Z"/><path class="f" d="M67.89,36.93l-.79-.78-.95.54.45-1-.79-.76,1.08.15.48-1,.19,1.11,1.07.15-.95.54Z"/><path class="b" d="M59.68,15.2l-1.81-2.14-2.53,1.11,1.43-2.41L55,9.63l2.67.63L59,7.86l.24,2.8L62,11.3l-2.51,1.1Z"/><path class="a" d="M34.8,18.93l-1.46-.61-1,1.25.12-1.64L31,17.31l1.56-.37.11-1.64.84,1.4L35,16.3l-1,1.26Z"/><path class="b" d="M17.74,23.92l-1.25-.84-1.14,1,.36-1.48-1.24-.83,1.48-.1.38-1.48.55,1.43,1.48-.1-1.15,1Z"/><path class="a" d="M14.73,52.89l-3.65-.59L9.41,55.69l-.57-3.75-3.63-.59,3.27-1.72L7.9,45.87l2.61,2.7,3.29-1.72-1.67,3.37Z"/><path class="a" d="M38.9,69.37l-1.26-.66-1,1.05.21-1.45-1.26-.66L37,67.41l.21-1.48.67,1.33L39.26,67l-1,1.06Z"/><path class="b" d="M51.26,80.79l-2-3.71-4.06.81L48,74.8l-2-3.71,3.72,1.79,2.79-3.12L52.05,74l3.72,1.77-4,.81Z"/></svg>