<svg width="50" height="50" viewBox="0 0 50 50" fill="none" xmlns="http://www.w3.org/2000/svg">
    <path d="M14.6897 6.43144C19.1643 10.1598 23.4634 16.032 27.8503 19.8536C33.2901 24.4208 38.4666 29.9202 43.2921 35.1399C43.0289 35.4195 42.1516 35.4195 42.4148 36.072C43.6431 38.2158 43.0289 38.8683 42.5025 39.4275C42.2393 39.7072 41.2742 38.1226 41.4497 38.8683C40.2213 37.5633 38.1156 35.6059 38.993 37.1905C39.0807 37.9362 41.011 39.3343 41.011 40.1732C41.011 41.0121 39.7826 40.6392 39.7826 41.4781C40.2213 41.9442 41.011 42.7831 41.3619 43.1559C41.4497 43.9016 40.1336 43.6219 40.4845 44.088C41.4497 45.6725 43.2044 47.2571 44.7837 48.9349C44.5205 49.2145 44.6082 49.9602 43.6431 49.2145C29.3419 34.5806 14.251 19.7604 0.563915 4.28763C-0.927625 2.42344 0.827128 3.07591 2.49414 3.91479C1.96772 3.63516 2.40641 3.26232 1.87998 2.9827C2.31867 2.51665 3.81021 2.60986 5.56496 4.19442C5.12627 3.72837 4.77532 3.35553 4.33663 2.88949C4.07342 2.33023 4.77532 2.42344 5.03853 2.14381C5.47722 2.60986 5.82817 2.9827 6.00365 2.88949C6.17912 2.70307 6.44234 2.42344 6.53008 2.33023C6.17912 1.77098 5.30175 0.932093 4.9508 0.559256C5.30175 0.932093 5.74044 1.39814 5.91591 1.21172C6.00365 1.11851 6.26686 0.745674 6.44234 0.652465C7.40745 1.39814 8.28483 2.9827 9.24994 3.63516L9.68863 3.16912C8.98673 2.14381 7.67066 1.0253 6.88103 0.186419C7.40745 0.466046 7.58293 0.279628 7.84614 0C9.1622 1.11851 9.95184 2.88949 11.6189 3.72837C11.1802 3.26232 10.8292 2.88949 10.3905 2.42344C11.8821 2.51665 13.3736 5.31293 14.6897 6.43144Z" fill="#DB0404"/>
    <path d="M9.42542 34.3942C12.9349 29.6405 18.4624 25.0733 22.0596 20.4128C26.3588 14.6338 31.623 9.04127 36.4486 3.91476C36.7118 4.19439 36.7118 5.12648 37.326 4.84685C39.344 3.54192 39.9581 4.19439 40.4845 4.75364C40.7478 5.03327 39.2562 6.05857 39.9581 5.87215C38.7298 7.17708 36.8873 9.41411 38.3788 8.48201C39.0807 8.3888 40.3968 6.3382 41.1864 6.3382C41.9761 6.3382 41.6251 7.64313 42.4148 7.64313C42.8535 7.17708 43.6431 6.3382 43.994 5.96536C44.6959 5.87215 44.4327 7.27029 44.8714 6.89745C46.363 5.87215 47.8545 4.00797 49.4338 2.3302C49.697 2.60983 50.3989 2.51662 49.697 3.54192C35.9222 18.8282 21.9719 34.8602 7.40745 49.4009C5.6527 50.9854 6.26686 49.1213 7.0565 47.3503C6.79329 47.9095 6.3546 47.4435 6.09139 48.096C5.6527 47.6299 5.74044 46.0454 7.23198 44.1812C6.79329 44.6472 6.44234 45.0201 6.00365 45.4861C5.47722 45.7657 5.56496 45.0201 5.30175 44.7404C5.74044 44.2744 6.09139 43.9015 6.00365 43.7151C5.82818 43.5287 5.56496 43.2491 5.47722 43.1559C5.03854 43.6219 4.2489 44.4608 3.89795 44.8336C4.33664 44.3676 4.68759 43.9948 4.59985 43.8083C4.42437 43.6219 4.16116 43.3423 4.07342 43.2491C4.77532 42.2238 6.26686 41.2917 6.88103 40.2664L6.44234 39.8003C5.47722 40.3596 4.42437 41.8509 3.547 42.6898C3.81021 42.1306 3.63473 41.9441 3.37152 41.6645C4.42437 40.2664 6.09139 39.4275 6.88103 37.6565C6.44234 38.1226 6.09139 38.4954 5.6527 38.9614C5.82818 37.3769 8.37257 35.7923 9.42542 34.3942Z" fill="#DB0404"/>
</svg>
