
<svg xmlns="http://www.w3.org/2000/svg" viewBox="0 0 53.21 108.09"><defs><style>.a{fill:#ef893a;}.b{fill:#f19b2c;}.c{fill:#d53d33;}.d{fill:#e54d42;}.e{fill:#b5c5c6;}.f,.i{fill:#d5e5e6;}.g{fill:#c52e25;}.h{fill:#fff;}.i{fill-opacity:0.2;}</style></defs><title>Ресурс 1</title><path class="a" d="M38.32,81.79a39.42,39.42,0,0,1-5,18.63s-1-1.73-2.28-4.58a38.75,38.75,0,0,1-4.35,12.25,42.18,42.18,0,0,1-4.41-12.27A23.58,23.58,0,0,1,20,100.39a39.78,39.78,0,0,1-5.18-18.57Z"/><path class="b" d="M37,81.78a36.39,36.39,0,0,1-3.68,8.8S32.28,88.85,31,86a38.75,38.75,0,0,1-4.35,12.25A41.87,41.87,0,0,1,22.25,86,24.3,24.3,0,0,1,20,90.55a38.4,38.4,0,0,1-3.64-8.9Z"/><path class="c" d="M38.74,80.49l-24.25,0c0-2.77.08-5.44.15-8.12.16-5.35.57-10.45,1.15-15,.16-1.21.33-2.42.49-3.45a89.11,89.11,0,0,1,2.34-11.74c.33-1.21.66-2.41,1.08-3.53C21.63,33,24,29.69,26.5,29.7s4.89,3.29,6.84,8.91c.34,1,.68,2.24,1.1,3.54A88.46,88.46,0,0,1,36.83,53.9c.17,1.21.34,2.24.51,3.45.52,4.67.95,9.76,1.3,15.11C38.64,75.05,38.73,77.73,38.74,80.49Z"/><path class="d" d="M32.17,80.48l-11.11,0c0-2.76.07-5.44.07-8,.07-3.54.15-7.08.23-10.27A17.88,17.88,0,0,0,21.43,60c.09-.78,0-1.55.08-2.33.33-6.22.82-11.74,1.4-16.14a16.89,16.89,0,0,1,.33-2.25c.08-.77.25-1.46.33-2.24.83-4.66,1.84-7.25,2.85-7.24s2,2.59,2.88,7.25a19,19,0,0,1,.34,2.25c.08.78.25,1.47.34,2.25.08.6.17,1.2.26,1.81.25,2.5.6,5.27.77,8.38.18,1.9.26,3.88.44,6A21.83,21.83,0,0,1,31.54,60c0,.7.08,1.47.09,2.16.17,3.28.18,6.74.27,10.28Q32.17,76.34,32.17,80.48Z"/><path class="e" d="M46.66,46.07l.06,26.41L6.48,72.39,6.42,46C6.37,24.21,21.06,6,25.34,1.29L26.43.17l.17.18a78.08,78.08,0,0,1,9,12C41,20.67,46.63,32.77,46.66,46.07Z"/><path class="f" d="M37.58,49.84a11.16,11.16,0,0,1-11,11.29,11.28,11.28,0,0,1-11-11.34,11.13,11.13,0,0,1,11-11.28A11.28,11.28,0,0,1,37.58,49.84Z"/><path class="g" d="M33.42,38.52a12.8,12.8,0,0,0-4-1.73,10.39,10.39,0,0,0-2.86-.36,10.45,10.45,0,0,0-2.87.34,11.84,11.84,0,0,0-4,1.72A13.18,13.18,0,0,0,13.5,49.78a13.67,13.67,0,0,0,2.2,7.43A12.9,12.9,0,0,0,21.35,62a12.53,12.53,0,0,0,5.14,1.13A12.36,12.36,0,0,0,31.63,62a12.71,12.71,0,0,0,5.63-4.73,13.29,13.29,0,0,0,2.17-7.42A13.11,13.11,0,0,0,33.42,38.52ZM26.57,59.05a8.81,8.81,0,0,1-5-1.48,9.33,9.33,0,0,1-4.06-7.78A9.22,9.22,0,0,1,23,41.26a8.05,8.05,0,0,1,3.54-.68,9.74,9.74,0,0,1,3.53.7,9.36,9.36,0,0,1,5.49,8.56,9.23,9.23,0,0,1-4,7.76A8.83,8.83,0,0,1,26.57,59.05Z"/><path class="h" d="M33.53,47.59a4.5,4.5,0,0,1-4.37,4.48,4.55,4.55,0,0,1-4.39-4.5,4.49,4.49,0,0,1,4.37-4.48A4.54,4.54,0,0,1,33.53,47.59Z"/><path class="f" d="M32.46,22.37a5.93,5.93,0,0,1-6,6.12,6,6,0,0,1-6-6.14,5.93,5.93,0,0,1,6-6.12A6.23,6.23,0,0,1,32.46,22.37Z"/><path class="g" d="M26.47,15.19a7.18,7.18,0,0,0-7.06,7.24A7.25,7.25,0,0,0,26.5,29.7a7.18,7.18,0,0,0,7.06-7.24A7.25,7.25,0,0,0,26.47,15.19Zm0,12.26a5,5,0,0,1-4.9-5,4.92,4.92,0,0,1,4.87-5,5,5,0,0,1,4.9,5A4.92,4.92,0,0,1,26.5,27.45Z"/><path class="h" d="M30.27,21.16a2.32,2.32,0,0,1-2.35,2.41,2.35,2.35,0,0,1-2.37-2.42,2.36,2.36,0,1,1,4.72,0Z"/><path class="a" d="M12.8,75.25A21.64,21.64,0,0,1,10,85.35a17.86,17.86,0,0,1-1.18-2.42,18.3,18.3,0,0,1-2.34,6.55,25,25,0,0,1-2.38-6.57,14.22,14.22,0,0,1-1.08,2.33,21.62,21.62,0,0,1-2.72-10Z"/><path class="b" d="M12.12,75.25a19,19,0,0,1-2,4.83,16.44,16.44,0,0,1-1.19-2.42,18.22,18.22,0,0,1-2.34,6.55,24.94,24.94,0,0,1-2.37-6.56A23.4,23.4,0,0,1,3,80.06a21.18,21.18,0,0,1-2-4.84Z"/><path class="c" d="M13.05,74.47,0,74.53C.05,59.42,2.88,47.17,6.42,47.18c3.37,0,6.25,11.06,6.62,25.22Z"/><path class="d" d="M9.51,74.47l-5.89,0c0-15.11,1.28-27.28,2.88-27.36S9.39,58.15,9.59,72.31A20.23,20.23,0,0,0,9.51,74.47Z"/><path class="a" d="M40.41,75.32a21.67,21.67,0,0,0,2.72,10,16.54,16.54,0,0,0,1.17-2.42,18.62,18.62,0,0,0,2.37,6.57A24.81,24.81,0,0,0,49,82.94a24.44,24.44,0,0,0,1.18,2.42,21.62,21.62,0,0,0,2.67-10Z"/><path class="b" d="M41.17,75.23a19,19,0,0,0,2,4.84,16.71,16.71,0,0,0,1.17-2.41,18.45,18.45,0,0,0,2.38,6.57,25,25,0,0,0,2.34-6.56,25.87,25.87,0,0,0,1.18,2.42,20.71,20.71,0,0,0,2-4.83Z"/><path class="c" d="M53.21,74.66c-.12-15.11-3-27.38-6.55-27.39s-6.54,12.25-6.42,27.36Z"/><path class="d" d="M49.67,74.65c0-15.2-1.41-27.29-3-27.38s-3,12.26-2.88,27.36Z"/><path class="g" d="M26.52.09l-.09.08a128.19,128.19,0,0,0-4.09,13,38.91,38.91,0,0,1-5.06-.88,86.24,86.24,0,0,1,8.23-11A9.12,9.12,0,0,1,26.52.09Z"/><path class="d" d="M35.81,12.37c-.51-.69-.85-1.39-1.36-2.08-.17-.17-.25-.43-.5-.69-.43-.6-.76-1.12-1.19-1.73-.25-.43-.59-.78-.76-1.12-1.26-1.82-2.53-3.29-3.46-4.41L28.2,2C27.44,1,26.77.35,26.52.09a101.05,101.05,0,0,1,4.15,13A28.22,28.22,0,0,0,35.81,12.37Z"/><path class="c" d="M22.34,13.2a32,32,0,0,0,4,.18,37,37,0,0,0,4.46-.25,124.36,124.36,0,0,0-4.16-13L26.6,0l-.08.09A96.64,96.64,0,0,0,22.34,13.2Z"/><path class="i" d="M26.52.09l.18,80.46-12.12,0c0-2.76.07-5.44.15-8.11l-1.6-.09a17.83,17.83,0,0,0,.09,2.15L0,74.53C.05,59.42,2.88,47.17,6.42,47.18V46C6.37,24.21,21.06,6,25.34,1.29Z"/><path class="i" d="M26.7,81.76l0,26.33a42.18,42.18,0,0,1-4.41-12.27A23.58,23.58,0,0,1,20,100.39a39.78,39.78,0,0,1-5.18-18.57Z"/></svg>