<svg xmlns="http://www.w3.org/2000/svg" viewBox="0 0 69.2 199.68"><defs><style>.a{fill:#a5b5b6;}.b{fill:#95a5a6;}.c{fill:#f7b23f;}.d{fill:#c52e25;}.e{fill:#f19b2c;}.f{fill:#f3aa43;}.g{fill:#e54d42;}.h{fill:#758586;}.i{fill:#859596;}.j{fill:#068db3;}.k{fill:#3ec1e6;}.l{fill:#42cdf5;}.m{fill:#34a3c2;}.n{fill:#079dc7;}.o{fill:#556566;}.p{fill:#d5e5e6;}.q{fill:#fff;}.r{fill:#c5d5d6;}</style></defs><title>Ресурс 11</title><path class="a" d="M23.85,103.85l-.26,36.79a1.36,1.36,0,0,1-1.47,1.48c-10.53.17-18.89,8.62-19.08,19.54a1.25,1.25,0,0,1-.34.8,1.62,1.62,0,0,1-1.24.8A1.37,1.37,0,0,1,0,161.76L.27,125.2c.09-12.41,9.91-22.58,22-22.74a1.43,1.43,0,0,1,1.12.47C23.75,103.05,23.86,103.39,23.85,103.85Z"/><path class="b" d="M23.85,104.77l-.26,35.87a1.36,1.36,0,0,1-1.47,1.48c-10.53.17-18.89,8.62-19.08,19.54a1.25,1.25,0,0,1-.34.8L3,127.52A23,23,0,0,1,23.85,104.77Z"/><path class="a" d="M45.92,105.71l-.26,36.79a1.37,1.37,0,0,0,1.45,1.5c10.54.3,18.77,8.86,18.8,19.78a1.27,1.27,0,0,0,.34.81,1.6,1.6,0,0,0,1.22.81,1.37,1.37,0,0,0,1.47-1.49l.26-36.55c.09-12.42-9.59-22.71-21.7-23a1.4,1.4,0,0,0-1.12.46A3.28,3.28,0,0,0,45.92,105.71Z"/><path class="b" d="M45.92,106.63l-.26,35.87a1.37,1.37,0,0,0,1.45,1.5c10.54.3,18.77,8.86,18.8,19.78a1.27,1.27,0,0,0,.34.81l.24-35A22.78,22.78,0,0,0,45.92,106.63Z"/><path class="c" d="M34.32,4.4l-.14,22.76h2.53l.14-22.76Z"/><path class="d" d="M38.35,2.89a2.8,2.8,0,1,1-5.6,0,2.8,2.8,0,1,1,5.6,0Z"/><path class="e" d="M34.27,199.68a50.64,50.64,0,0,0,5.2-21.24l.08-12.18-10.09-.06-.08,12.18A50.55,50.55,0,0,0,34.27,199.68Z"/><path class="d" d="M34.22,191.06a34.66,34.66,0,0,0,3.58-14.58l.06-8.51-6.95,0-.06,8.51A34.57,34.57,0,0,0,34.22,191.06Z"/><path class="f" d="M25.94,188.48a34.33,34.33,0,0,0,3.47-14.24l.06-8.27-6.73-.05-.06,8.28A33.08,33.08,0,0,0,25.94,188.48Z"/><path class="g" d="M25.87,182.84a25,25,0,0,0,2.43-9.75l0-5.52-4.7,0,0,5.52A24.82,24.82,0,0,0,25.87,182.84Z"/><path class="f" d="M42.65,188.7a34.41,34.41,0,0,0,3.46-14.24l.06-8.28-6.73,0-.06,8.28A34.27,34.27,0,0,0,42.65,188.7Z"/><path class="g" d="M42.58,182.83A24.89,24.89,0,0,0,45,173.08l0-5.52-4.71,0,0,5.52A24.73,24.73,0,0,0,42.58,182.83Z"/><path class="h" d="M47.75,165.05a2.93,2.93,0,0,1-3,3.08L24.52,168a2.93,2.93,0,0,1-3-3.12l2.55-11.71a2.92,2.92,0,0,1,3.05-3.08l15.25.09a2.56,2.56,0,0,1,1.79.7,3.5,3.5,0,0,1,1.32,2.54Z"/><path class="i" d="M29.55,150.54l-.13,17.55,9.83.07.13-17.56Z"/><path class="j" d="M51.46,146.9a4.37,4.37,0,0,1-4.4,4.46L22,151.2a4.35,4.35,0,0,1-4.34-4.51v-.92A4.36,4.36,0,0,1,22,141.32l25.11.15A4.37,4.37,0,0,1,51.47,146Z"/><path class="k" d="M29.07,63a2.54,2.54,0,0,0,0-.92V60c0-.23.12-.57.12-.8a22.29,22.29,0,0,1,.13-2.65c0-.23,0-.46,0-.69a10.86,10.86,0,0,1,.12-1.95c0-.23,0-.69,0-.92,0-.69.12-1.26.13-2v-.69A11,11,0,0,1,30,47.67v-.23c.47-3.44.94-6.66,1.3-9.53.11-.11,0-.23.11-.34a19.33,19.33,0,0,1-5.81-1.88c-.69,1.61-1.48,3.33-2.17,5.16a70.48,70.48,0,0,0-5.11,25.26l-.57,80.24,10.76.07.57-80.24C29,64.91,29.07,63.88,29.07,63Z"/><path class="k" d="M30.19,47.22v.23A.17.17,0,0,1,30.19,47.22Z"/><path class="k" d="M29.08,62a2.53,2.53,0,0,0,0,.92C29.07,62.73,29.08,62.5,29.08,62Z"/><path class="k" d="M29.21,59.17c0,.23-.11.57-.12.8C29.1,59.74,29.21,59.4,29.21,59.17Z"/><path class="k" d="M47.61,41.46a60.47,60.47,0,0,0-2.54-6.11,19.43,19.43,0,0,1-5.84,1.81,174.85,174.85,0,0,1,2,28.75l-.57,80.24,10.77.07L52,66A69.66,69.66,0,0,0,47.61,41.46Z"/><path class="k" d="M31.49,37.68c.12-.11,0-.23.12-.34C31.5,37.45,31.5,37.45,31.49,37.68Z"/><path class="k" d="M29.84,50.09c0,.23,0,.46,0,.69C29.83,50.55,29.84,50.32,29.84,50.09Z"/><path class="k" d="M29.35,55.83c0,.23,0,.46,0,.69C29.34,56.29,29.35,56.06,29.35,55.83Z"/><path class="k" d="M29.59,52.84v.92A2.57,2.57,0,0,1,29.59,52.84Z"/><path class="l" d="M29.09,60v0Z"/><path class="l" d="M29.83,50.78c0,.69-.12,1.26-.12,1.95A5.84,5.84,0,0,1,29.83,50.78Z"/><path class="l" d="M29.34,56.52c0,.92-.12,1.73-.13,2.65A22.29,22.29,0,0,1,29.34,56.52Z"/><path class="l" d="M29.07,63a29.56,29.56,0,0,0,0,3A29.56,29.56,0,0,1,29.07,63Z"/><path class="l" d="M29.59,53.76c0,.69-.12,1.27-.13,2A11,11,0,0,1,29.59,53.76Z"/><path class="l" d="M30.79,42.05c.12-1.5.47-3,.7-4.37-.47,3-.94,6.2-1.3,9.54C30.32,45.49,30.56,43.65,30.79,42.05Z"/><path class="l" d="M30.08,47.56a25.49,25.49,0,0,1-.36,2.64A25.49,25.49,0,0,0,30.08,47.56Z"/><path class="l" d="M39.23,37.16c-1.34.22-2.58.32-4,.43a18.3,18.3,0,0,1-3.69-.37c-.12.12,0,.23-.12.35-.23,1.37-.47,2.75-.7,4.36s-.47,3.45-.71,5.28v.23a25.3,25.3,0,0,1-.36,2.65v.69c0,.69-.12,1.26-.13,1.95v.92c0,.69-.13,1.26-.13,2,0,.23,0,.46,0,.69,0,.92-.12,1.73-.13,2.65,0,.23-.11.57-.11.8l0,2.07a2.78,2.78,0,0,0,0,.92,29.56,29.56,0,0,0,0,3L28.49,146l12.33.07.56-80.24A176.31,176.31,0,0,0,39.23,37.16Z"/><path class="k" d="M31.61,36.65a2.72,2.72,0,0,1,.12-.81c.12-.34.12-.8.23-1.14s.12-.35.12-.58.12-.8.23-1.15v-.23c.24-1.37.58-2.64.7-3.9.12-.11,0-.23.12-.34.11-.35.11-.58.23-.92a.61.61,0,0,0,.11-.35c.12-.34.12-.57.23-.92.12-.11,0-.23.12-.34a2.62,2.62,0,0,0,.12-.8c.11-.12,0-.23.11-.35s.12-.57.12-.8l.11-.12c.23-.91.35-1.72.58-2.41l.11-.11c0-.23.12-.34.12-.57a.17.17,0,0,0,0-.23.61.61,0,0,0,.11-.35l.12-.11c.11-.12,0-.23.11-.35s0-.23.12-.34a.54.54,0,0,1,.11-.35,90.05,90.05,0,0,0-9.87,16.38,33.77,33.77,0,0,0,5.82,1.88Z"/><path class="j" d="M31.61,36.65a2.72,2.72,0,0,1,.12-.81c.12-.34.12-.8.23-1.14s.12-.35.12-.58.12-.8.23-1.15v-.23c.24-1.37.58-2.64.7-3.9.12-.11,0-.23.12-.34.11-.35.11-.58.23-.92a.61.61,0,0,0,.11-.35c.12-.34.12-.57.23-.92.12-.11,0-.23.12-.34a2.62,2.62,0,0,0,.12-.8c.11-.12,0-.23.11-.35s.12-.57.12-.8l.11-.12c.23-.91.35-1.72.58-2.41l.11-.11c0-.23.12-.34.12-.57a.17.17,0,0,0,0-.23.61.61,0,0,0,.11-.35l.12-.11c.11-.12,0-.23.11-.35s0-.23.12-.34a.54.54,0,0,1,.11-.35,90.05,90.05,0,0,0-9.87,16.38,33.77,33.77,0,0,0,5.82,1.88Z"/><path class="k" d="M31.5,37.22c0-.23.11-.34.11-.57A.87.87,0,0,1,31.5,37.22Z"/><path class="m" d="M31.5,37.22c0-.23.11-.34.11-.57A.87.87,0,0,1,31.5,37.22Z"/><path class="k" d="M32.31,33c.24-1.37.58-2.64.7-3.9C32.78,30.22,32.66,31.48,32.31,33Z"/><path class="m" d="M32.31,33c.24-1.37.58-2.64.7-3.9C32.78,30.22,32.66,31.48,32.31,33Z"/><path class="k" d="M32.08,34.35c.11-.34.12-.8.23-1.15A3.56,3.56,0,0,0,32.08,34.35Z"/><path class="m" d="M32.08,34.35c.11-.34.12-.8.23-1.15A3.56,3.56,0,0,0,32.08,34.35Z"/><path class="k" d="M31.84,36c.12-.34.12-.8.23-1.15A1.56,1.56,0,0,0,31.84,36Z"/><path class="m" d="M31.84,36c.12-.34.12-.8.23-1.15A1.56,1.56,0,0,0,31.84,36Z"/><path class="k" d="M33.24,28.61c.11-.34.12-.57.23-.92A.91.91,0,0,0,33.24,28.61Z"/><path class="m" d="M33.24,28.61c.11-.34.12-.57.23-.92A.91.91,0,0,0,33.24,28.61Z"/><path class="k" d="M33.47,27.23c.12-.34.12-.57.23-.92C33.59,26.66,33.59,26.89,33.47,27.23Z"/><path class="m" d="M33.47,27.23c.12-.34.12-.57.23-.92C33.59,26.66,33.59,26.89,33.47,27.23Z"/><path class="k" d="M35.32,19.66c.11-.12,0-.23.12-.35C35.32,19.43,35.43,19.54,35.32,19.66Z"/><path class="m" d="M35.32,19.66c.11-.12,0-.23.12-.35C35.32,19.43,35.43,19.54,35.32,19.66Z"/><path class="k" d="M45.07,35.35A86.84,86.84,0,0,0,35.55,19a158.4,158.4,0,0,1,3.68,18.19A19.43,19.43,0,0,0,45.07,35.35Z"/><path class="m" d="M45.07,35.35A86.84,86.84,0,0,0,35.55,19a158.4,158.4,0,0,1,3.68,18.19A19.43,19.43,0,0,0,45.07,35.35Z"/><path class="k" d="M35.55,19a.49.49,0,0,0-.11.34A.49.49,0,0,1,35.55,19Z"/><path class="m" d="M35.55,19a.49.49,0,0,0-.11.34A.49.49,0,0,1,35.55,19Z"/><path class="k" d="M35.21,20c.11-.11,0-.23.11-.34C35.32,19.89,35.32,19.89,35.21,20Z"/><path class="m" d="M35.21,20c.11-.11,0-.23.11-.34C35.32,19.89,35.32,19.89,35.21,20Z"/><path class="k" d="M34.28,23.9c.23-.91.35-1.72.58-2.41C34.63,22.18,34.51,23,34.28,23.9Z"/><path class="m" d="M34.28,23.9c.23-.91.35-1.72.58-2.41C34.63,22.18,34.51,23,34.28,23.9Z"/><path class="k" d="M34.05,24.82c0-.23.12-.57.12-.8A2.12,2.12,0,0,1,34.05,24.82Z"/><path class="m" d="M34.05,24.82c0-.23.12-.57.12-.8A2.12,2.12,0,0,1,34.05,24.82Z"/><path class="k" d="M35.09,20.58a.61.61,0,0,0,.11-.35C35.09,20.35,35.2,20.46,35.09,20.58Z"/><path class="m" d="M35.09,20.58a.61.61,0,0,0,.11-.35C35.09,20.35,35.2,20.46,35.09,20.58Z"/><path class="k" d="M33.82,26c0-.23.11-.57.12-.8C33.93,25.4,33.82,25.74,33.82,26Z"/><path class="m" d="M33.82,26c0-.23.11-.57.12-.8C33.93,25.4,33.82,25.74,33.82,26Z"/><path class="k" d="M34.86,21.26c0-.23.12-.34.12-.57A.87.87,0,0,1,34.86,21.26Z"/><path class="m" d="M34.86,21.26c0-.23.12-.34.12-.57A.87.87,0,0,1,34.86,21.26Z"/><path class="l" d="M32,34.93c0-.23.12-.35.12-.58A.91.91,0,0,0,32,34.93Z"/><path class="m" d="M32,34.93c0-.23.12-.35.12-.58A.91.91,0,0,0,32,34.93Z"/><path class="l" d="M35.21,20.23Z"/><path class="m" d="M35.21,20.23Z"/><path class="l" d="M31.61,36.65a2.72,2.72,0,0,1,.12-.81A4.92,4.92,0,0,1,31.61,36.65Z"/><path class="m" d="M31.61,36.65a2.72,2.72,0,0,1,.12-.81A4.92,4.92,0,0,1,31.61,36.65Z"/><path class="l" d="M32.2,33.09v-.23C32.31,33,32.31,33,32.2,33.09Z"/><path class="m" d="M32.2,33.09v-.23C32.31,33,32.31,33,32.2,33.09Z"/><path class="l" d="M33.13,29c.11-.12,0-.23.11-.35C33.13,28.73,33,28.84,33.13,29Z"/><path class="m" d="M33.13,29c.11-.12,0-.23.11-.35C33.13,28.73,33,28.84,33.13,29Z"/><path class="l" d="M33.94,25.17c.11-.12,0-.23.11-.35A.54.54,0,0,0,33.94,25.17Z"/><path class="m" d="M33.94,25.17c.11-.12,0-.23.11-.35A.54.54,0,0,0,33.94,25.17Z"/><path class="l" d="M33.36,27.58a.61.61,0,0,0,.11-.35C33.36,27.35,33.47,27.46,33.36,27.58Z"/><path class="m" d="M33.36,27.58a.61.61,0,0,0,.11-.35C33.36,27.35,33.47,27.46,33.36,27.58Z"/><path class="l" d="M33.7,26.31c.12-.11,0-.23.12-.34C33.71,26.08,33.71,26.08,33.7,26.31Z"/><path class="m" d="M33.7,26.31c.12-.11,0-.23.12-.34C33.71,26.08,33.71,26.08,33.7,26.31Z"/><path class="l" d="M35.44,19.31a.65.65,0,0,1-.12.35c-.11.11,0,.23-.11.34l-.12.12a.57.57,0,0,0-.11.34.16.16,0,0,0,0,.23c0,.23-.12.34-.12.57l-.11.12c-.23.69-.35,1.49-.58,2.41l-.11.11c0,.23-.12.58-.12.81s0,.23-.11.34-.12.58-.12.81,0,.22-.12.34c-.11.34-.11.57-.23.92a.57.57,0,0,0-.11.34c-.12.35-.12.58-.23.92-.12.11,0,.23-.12.34-.23,1.15-.46,2.53-.7,3.91v.23c-.11.34-.12.8-.23,1.15s-.12.34-.12.57-.12.8-.23,1.15a2.12,2.12,0,0,1-.12.8c0,.23-.11.35-.11.58l3.69.36a15.32,15.32,0,0,0,4-.43C37.4,26.22,35.55,19.2,35.44,18.85,35.55,19,35.44,19.08,35.44,19.31Z"/><path class="n" d="M35.44,19.31a.65.65,0,0,1-.12.35c-.11.11,0,.23-.11.34l-.12.12a.57.57,0,0,0-.11.34.16.16,0,0,0,0,.23c0,.23-.12.34-.12.57l-.11.12c-.23.69-.35,1.49-.58,2.41l-.11.11c0,.23-.12.58-.12.81s0,.23-.11.34-.12.58-.12.81,0,.22-.12.34c-.11.34-.11.57-.23.92a.57.57,0,0,0-.11.34c-.12.35-.12.58-.23.92-.12.11,0,.23-.12.34-.23,1.15-.46,2.53-.7,3.91v.23c-.11.34-.12.8-.23,1.15s-.12.34-.12.57-.12.8-.23,1.15a2.12,2.12,0,0,1-.12.8c0,.23-.11.35-.11.58l3.69.36a15.32,15.32,0,0,0,4-.43C37.4,26.22,35.55,19.2,35.44,18.85,35.55,19,35.44,19.08,35.44,19.31Z"/><path class="o" d="M35,97.6a6.33,6.33,0,1,1,6.21-6.29A6.3,6.3,0,0,1,35,97.6ZM35.07,87A4.37,4.37,0,0,0,35,95.76,4.37,4.37,0,0,0,35.07,87Z"/><path class="p" d="M39.75,91.42a4.71,4.71,0,1,1-4.68-4.86A5,5,0,0,1,39.75,91.42Z"/><path class="q" d="M37.74,89.8a1.57,1.57,0,1,1-1.56-1.62A1.56,1.56,0,0,1,37.74,89.8Z"/><path class="o" d="M35.1,82.65a6.32,6.32,0,1,1,6.21-6.28A6.29,6.29,0,0,1,35.1,82.65Zm0-10.69A4.37,4.37,0,0,0,35,80.7a4.47,4.47,0,0,0,4.29-4.34A4.17,4.17,0,0,0,35.06,72Z"/><path class="p" d="M39.85,76.25a4.71,4.71,0,1,1-4.67-4.86A4.94,4.94,0,0,1,39.85,76.25Z"/><path class="q" d="M38,74.74a1.57,1.57,0,1,1-1.56-1.62A1.56,1.56,0,0,1,38,74.74Z"/><path class="o" d="M35.21,67.48a6.32,6.32,0,1,1,6.21-6.28A6.28,6.28,0,0,1,35.21,67.48Zm.07-10.58a4.37,4.37,0,0,0-.06,8.74,4.37,4.37,0,0,0,.06-8.74Z"/><path class="p" d="M40,61.3a4.71,4.71,0,1,1-4.67-4.86A4.66,4.66,0,0,1,40,61.3Z"/><path class="q" d="M38,59.68a1.55,1.55,0,0,1-1.58,1.6A1.61,1.61,0,1,1,38,59.68Z"/><path class="o" d="M35.32,51.85a6.33,6.33,0,1,1,6.21-6.29A6.29,6.29,0,0,1,35.32,51.85Zm.07-10.58A4.37,4.37,0,0,0,35.33,50a4.47,4.47,0,0,0,4.29-4.34A4.17,4.17,0,0,0,35.39,41.27Z"/><path class="p" d="M40.07,45.67a4.71,4.71,0,1,1-4.67-4.86A4.66,4.66,0,0,1,40.07,45.67Z"/><path class="q" d="M38.18,43.93a1.57,1.57,0,1,1-1.56-1.62A2,2,0,0,1,38.18,43.93Z"/><path class="a" d="M36.7,157.5c0,2.53.53,4.72-2.05,4.82s-2-2.08-2-4.84l-2.23-50.25a4.6,4.6,0,1,1,9.19,0Z"/><path class="r" d="M36.34,160.84a1.8,1.8,0,1,1-3.59,0l.4-56.56A2,2,0,0,1,35,102.43a1.93,1.93,0,0,1,1.78,1.85Z"/></svg>