<svg xmlns="http://www.w3.org/2000/svg" viewBox="0 0 59.8 61.92"><defs><style>.a{fill:#b5c5c6;}.b{fill:#c5d5d6;}.c{fill:#e54d42;}.d{fill:#f55d51;}.e{fill:#d5e5e6;}.f{fill:#556566;}.g{fill:#fff;}.h{fill:#ef893a;}.i{fill:#f7b23f;}</style></defs><title>Ресурс 20</title><path class="a" d="M42.82,37.61,27.41,53.42,7.71,33.21l15.41-15.8A57.58,57.58,0,0,1,44.58,3.9,65.06,65.06,0,0,1,59.6.1h.2a76,76,0,0,1-3.71,15.51C53.55,22.61,49.46,30.91,42.82,37.61Z"/><path class="b" d="M36.58,31.21,21.17,47,14,39.62,29.36,23.81A153,153,0,0,1,46.72,8.7,121.35,121.35,0,0,1,59.7.1a.1.1,0,0,0,.1-.1,136.26,136.26,0,0,1-8.39,13.41A158.41,158.41,0,0,1,36.58,31.21Z"/><path class="c" d="M56,15.61a14.54,14.54,0,0,1-4.78-2.1,16.09,16.09,0,0,1-2.53-2.11,16.15,16.15,0,0,1-2-2.6A14.74,14.74,0,0,1,44.58,4,65.06,65.06,0,0,1,59.6.2a.1.1,0,0,0,.1-.1h.1A72.88,72.88,0,0,1,56,15.61Z"/><path class="d" d="M51.31,13.51a16.16,16.16,0,0,1-2.54-2.11,17.35,17.35,0,0,1-2.05-2.6A121.35,121.35,0,0,1,59.7.2a.1.1,0,0,0,.1-.1C59.41.7,56.48,6.1,51.31,13.51Z"/><path class="e" d="M44.38,26.11a6.71,6.71,0,0,1-9.75,0,7.13,7.13,0,0,1,0-10,6.69,6.69,0,0,1,9.75,0A7.13,7.13,0,0,1,44.38,26.11Z"/><path class="f" d="M33.75,27a8.41,8.41,0,0,1,0-11.8,7.93,7.93,0,0,1,11.51,0,8.41,8.41,0,0,1,0,11.8A8.1,8.1,0,0,1,33.75,27Zm9.76-10a5.5,5.5,0,0,0-8,0,5.82,5.82,0,0,0,0,8.2,5.5,5.5,0,0,0,8,0A6,6,0,0,0,43.51,17Z"/><path class="g" d="M43.6,23.21a2.72,2.72,0,0,1-3.9,0,2.89,2.89,0,0,1,0-4,2.72,2.72,0,0,1,3.9,0A2.87,2.87,0,0,1,43.6,23.21Z"/><path class="c" d="M30.14,57c6.83-7,10.93-14,9.27-15.7s-8.49,2.6-15.32,9.5Z"/><path class="d" d="M28.48,55.32c6.83-7,11.71-13.2,10.93-14s-6.83,4.2-13.66,11.2Z"/><path class="h" d="M24,51.72l-4.2,7.5L22,58,20,61.92l3.61-2.3-1.08,2.3,6.73-4.8Z"/><path class="i" d="M24.68,52.42l-3,5.5,1.57-.9-1.47,2.9,2.64-1.6L23.61,60l5-3.6Z"/><path class="c" d="M16.48,52.62c9-9.2,14.44-18.41,12.2-20.71S17.46,35.31,8.49,44.42Z"/><path class="d" d="M14.34,50.42c9-9.2,15.41-17.41,14.44-18.51s-9.08,5.6-18,14.81Z"/><path class="h" d="M8.39,45.72l-5.56,9.8L5.66,54l-2.54,5.1,4.68-3-1.36,3.1,8.78-6.4Z"/><path class="i" d="M9.27,46.72l-4.1,7.2,2.15-1.2-2,3.8,3.52-2.2L7.8,56.62l6.54-4.8Z"/><path class="c" d="M10.34,36.71c6.83-7,10.92-14,9.27-15.7s-8.49,2.6-15.32,9.5Z"/><path class="d" d="M8.78,35c6.83-7,11.7-13.2,10.92-14s-6.82,4.2-13.65,11.2Z"/><path class="h" d="M4.29,31.41,0,38.91l2.24-1.2L.29,41.62,3.8,39.41,2.73,41.72l6.73-4.91Z"/><path class="i" d="M5,32.21l-3.12,5.4,1.56-.8L2,39.72,4.58,38,3.8,39.72l5-3.61Z"/></svg>