<svg xmlns="http://www.w3.org/2000/svg" viewBox="0 0 57.55 59.02"><defs><style>.a{fill:#3ec1e6;}.b{fill:#34a3c2;}.c{fill:#556566;}.d{fill:#f3aa43;}.e{fill:#f8be49;}.f{fill:#f7b23f;}.g{fill:#42cdf5;}.h{fill:#d5e5e6;}.i{fill:#e47e30;}.j{fill:#fce2aa;}.k{fill:#fff;}.l{fill:#657576;}.m{fill:#95a5a6;}.n{fill:#859596;}</style></defs><title>Ресурс 17</title><path class="a" d="M30.47,8.88c-8.86,7.51-18.87,2.53-18.87,2.53L10.28,29.85S39.44,1.46,30.47,8.88Z"/><path class="b" d="M30.47,10c-8.86,7.51-18.87,2.54-18.87,2.54L10.28,30.92C10.28,30.83,39.34,2.44,30.47,10Z"/><path class="a" d="M48.78,27.8C41.51,37,46.33,47.31,46.33,47.31L28.49,48.68C28.59,48.68,56,18.63,48.78,27.8Z"/><path class="b" d="M47.84,27.9c-7.27,9.17-2.46,19.51-2.46,19.51L27.55,48.78C27.64,48.78,55,18.63,47.84,27.9Z"/><path class="c" d="M33.4,45a2.44,2.44,0,0,1-3.49,0L14.06,28.58a2.64,2.64,0,0,1,0-3.61,2.46,2.46,0,0,1,3.49,0L33.4,41.36A2.66,2.66,0,0,1,33.4,45Z"/><path class="d" d="M49.25,4.29a26.8,26.8,0,0,1-2.08-2.93C40.66,2.83,32.46,5.85,26.23,12.29L13.78,25.17l5.56,5.75L31.79,18.05A81.22,81.22,0,0,1,49.25,4.29Z"/><path class="e" d="M46.61,31.22c.19-.2.28-.39.47-.49A6,6,0,0,0,48,29.46c.1-.19.29-.39.38-.58a4.11,4.11,0,0,0,.47-.69,1.93,1.93,0,0,0,.38-.58c.09-.2.28-.39.38-.59s.28-.39.38-.58.28-.49.37-.68a2,2,0,0,1,.38-.59c.09-.1.09-.2.19-.29s.19-.39.28-.59A25,25,0,0,0,52.36,22c.1-.19.19-.39.29-.59s.19-.48.28-.68l.28-.58c.28-.69.57-1.37.76-2a10.84,10.84,0,0,1,.38-1.07c.09-.29.18-.49.28-.78s.09-.39.19-.58c.19-.59.37-1.27.56-1.86.1-.39.19-.78.28-1.07.19-.68.29-1.37.48-2a24.27,24.27,0,0,1-2.83-2.05A86.23,86.23,0,0,1,40,26.83L27.55,39.7,33,45.36,45.48,32.49A14.55,14.55,0,0,1,46.61,31.22Z"/><path class="f" d="M53.4,8.49c-.75-.69-1.51-1.37-2.26-2.15A21.41,21.41,0,0,1,49.25,4.2,83.38,83.38,0,0,0,31.79,18L19.34,30.83l8.3,8.58L40.1,26.53A86.2,86.2,0,0,0,53.4,8.49Z"/><path class="b" d="M57.36,0h0A51.81,51.81,0,0,0,47.17,1.27,19.36,19.36,0,0,0,49.25,4.2C53.59,1.66,56.8.29,57.36,0Z"/><path class="g" d="M56.23,10.54c.1-.59.19-1.08.29-1.66,0-.2.09-.39.09-.59a8.33,8.33,0,0,0,.19-1.36,3.3,3.3,0,0,0,.09-1c.19-1.56.28-2.83.38-3.9V1.76A16.23,16.23,0,0,0,57.36,0a84.38,84.38,0,0,1-4.15,8.39C54.35,9.27,55.29,10,56.23,10.54Z"/><path class="h" d="M57.46,0Z"/><path class="a" d="M49.25,4.29c.57.68,1.23,1.47,1.89,2.15S52.65,7.9,53.4,8.58A83.61,83.61,0,0,0,57.55.2V.1h-.09A49.5,49.5,0,0,0,49.25,4.29Z"/><path class="i" d="M0,59S10.76,58,18.11,50.34l7.65-7.9L16,32.39,8.4,40.29C1,47.9,0,59,0,59Z"/><path class="d" d="M4.43,54.44s7.36-.78,12.36-6L22,43.12l-6.7-6.93L10.1,41.56C5.19,46.83,4.43,54.44,4.43,54.44Z"/><path class="j" d="M9.53,49.17a14.26,14.26,0,0,0,7.92-3.81L20.76,42l-4.25-4.39L13.21,41C10,44.19,9.53,49.17,9.53,49.17Z"/><path class="c" d="M39.06,19.22a6.89,6.89,0,0,1,0-9.37,6.36,6.36,0,0,1,9.06,0,6.89,6.89,0,0,1,0,9.37A6.34,6.34,0,0,1,39.06,19.22Zm7.64-7.9a4.32,4.32,0,0,0-6.22,0,4.7,4.7,0,0,0,0,6.44,4.34,4.34,0,0,0,6.22,0A4.7,4.7,0,0,0,46.7,11.32Z"/><path class="h" d="M47,18.14a4.88,4.88,0,0,1-7,0,5.31,5.31,0,0,1,0-7.21,4.88,4.88,0,0,1,7,0A5.1,5.1,0,0,1,47,18.14Z"/><path class="k" d="M46.7,15.41a1.49,1.49,0,0,1-2.26,0,1.63,1.63,0,0,1,0-2.34,1.51,1.51,0,0,1,2.26,0A1.63,1.63,0,0,1,46.7,15.41Z"/><path class="l" d="M27.46,45.66a2.3,2.3,0,0,1-3.21,0L13.3,34.34a2.48,2.48,0,0,1,0-3.32,2.23,2.23,0,0,1,3.21,0l11,11.32A2.5,2.5,0,0,1,27.46,45.66Z"/><path class="m" d="M27.46,45.66a2.3,2.3,0,0,1-3.21,0L16.79,38a2.5,2.5,0,0,1,0-3.32,2.23,2.23,0,0,1,3.21,0l7.46,7.71A2.5,2.5,0,0,1,27.46,45.66Z"/><path class="n" d="M24.06,42.14a2.28,2.28,0,0,1-3.21,0L16.79,38a2.5,2.5,0,0,1,0-3.32,2.23,2.23,0,0,1,3.21,0l4.06,4.2A2.47,2.47,0,0,1,24.06,42.14Z"/><path class="a" d="M33.87,29.66,13.21,45.46,28.49,24.1,36,22.05Z"/><path class="b" d="M36,22.05,13.21,45.46,28.49,24.1Z"/></svg>