<svg xmlns="http://www.w3.org/2000/svg" viewBox="0 0 75.21 149.03"><defs><style>.a{fill:#f3aa43;}.b{fill:#ef893a;}.c{fill:#34a3c2;}.d{fill:#42cdf5;}.e{fill:#3ec1e6;}.f{fill:#f8be49;}.g{fill:#d5e5e6;}.h{fill:#c5d5d6;}.i{fill:#556566;}.j{fill:#fff;}.k{fill:#d53d33;}.l{fill:#b51f18;}.m{fill:#455556;}.n{fill:#657576;}</style></defs><title>Ресурс 13</title><path class="a" d="M23.13,71.59C20.79,94.9,0,102.21,0,102.21l23.13,27.7S25.58,48.39,23.13,71.59Z"/><path class="b" d="M24.36,73.05C22,96.36,1.22,103.67,1.22,103.67l23,27.6C24.46,131.27,26.8,49.85,24.36,73.05Z"/><path class="a" d="M52.08,71.59c2.34,23.31,23.13,30.62,23.13,30.62l-23,27.59C52.08,129.91,49.63,48.39,52.08,71.59Z"/><path class="b" d="M50.85,73.05C53.2,96.36,74,103.67,74,103.67l-23.24,27.6S48.41,49.85,50.85,73.05Z"/><path class="c" d="M29.25,60.09V56.33a13.81,13.81,0,0,1,.1-2V53.3a10.05,10.05,0,0,1,.1-1.78v-1a10,10,0,0,1,.1-1.78c.11-.31,0-.62.11-.94a10.05,10.05,0,0,1,.1-1.78,2.29,2.29,0,0,0,0-.83,10.73,10.73,0,0,1,.2-1.88,2.11,2.11,0,0,1,.1-.73,12.76,12.76,0,0,0,.11-2,.8.8,0,0,1,.1-.52,16.31,16.31,0,0,0,.2-2.09v-.42c.1-.73.1-1.57.2-2.3a.14.14,0,0,0,0-.21c.72-6,1.53-11.39,2.45-16.09a21.37,21.37,0,0,1-4.48-.84,115.58,115.58,0,0,0-8.26,41.07c0,32.4,7.54,58.74,16.82,58.84A5.91,5.91,0,0,0,41,116.42a21.49,21.49,0,0,1-3.87-6.27C32.41,99.7,29.25,81.21,29.25,60.09Z"/><path class="d" d="M45.86,18a31,31,0,0,1-4.59.94,246.38,246.38,0,0,1,4,41.28c0,21.11-3.26,39.71-8,50.06a25,25,0,0,0,3.87,6.27c7.44-6,12.94-29.37,13-57.27A113.15,113.15,0,0,0,45.86,18Z"/><path class="e" d="M37.3,19a28,28,0,0,1-4.18-.31c-.92,4.7-1.73,10.14-2.45,16.09a.15.15,0,0,0,0,.21,16.28,16.28,0,0,0-.2,2.3v.42a16.31,16.31,0,0,0-.2,2.09.8.8,0,0,1-.1.52c0,.63-.11,1.36-.11,2a2.13,2.13,0,0,1-.1.73,10.73,10.73,0,0,1-.2,1.88,2.35,2.35,0,0,0,0,.84,9.94,9.94,0,0,1-.1,1.77c-.11.32,0,.63-.11.94a10,10,0,0,1-.1,1.78v1a9.94,9.94,0,0,1-.1,1.77v1a13.88,13.88,0,0,1-.1,2v3.77c0,21.11,3.26,39.71,8,50.06,4.79-10.35,8-28.85,8.05-50.06a228.06,228.06,0,0,0-4-41.29A25.78,25.78,0,0,1,37.3,19Z"/><path class="b" d="M37.2.52c0-.21,0-.21.1-.31A113.46,113.46,0,0,0,28.74,18a29.71,29.71,0,0,0,4.48.83A185.12,185.12,0,0,1,37.2.52Z"/><path class="f" d="M41.27,18.71a31,31,0,0,0,4.59-.94A132.2,132.2,0,0,0,37.3,0a.45.45,0,0,0-.1.31C37.6,2,39.44,8.67,41.27,18.71Z"/><path class="a" d="M33.12,18.71c1.33.1,2.75.31,4.18.31s2.75-.1,4.08-.21C39.54,8.78,37.6,2,37.2.52,36.79,2,35,8.67,33.12,18.71Z"/><path class="g" d="M30.37,37.62v-.41C30.37,37.41,30.47,37.52,30.37,37.62Z"/><path class="g" d="M30.17,40.34a.8.8,0,0,1,.1-.52A.8.8,0,0,0,30.17,40.34Z"/><path class="g" d="M30,43.06a2.11,2.11,0,0,1,.1-.73A2.11,2.11,0,0,0,30,43.06Z"/><path class="g" d="M29.35,51.42V50.37A1.87,1.87,0,0,1,29.35,51.42Z"/><path class="g" d="M29.25,54.24v-1A3.61,3.61,0,0,1,29.25,54.24Z"/><path class="g" d="M29.25,57.17v-.84A2.35,2.35,0,0,0,29.25,57.17Z"/><path class="g" d="M29.76,45.78a2.35,2.35,0,0,0,0-.84A2.35,2.35,0,0,0,29.76,45.78Z"/><path class="g" d="M29.45,48.6c.1-.32,0-.63.1-.94A1.47,1.47,0,0,1,29.45,48.6Z"/><path class="g" d="M30.67,35Z"/><path class="h" d="M29.45,50.48a10,10,0,0,1,.1-1.78A10,10,0,0,0,29.45,50.48Z"/><path class="h" d="M29.55,47.66a9.1,9.1,0,0,1,.11-1.78C29.66,46.51,29.55,47,29.55,47.66Z"/><path class="h" d="M29.25,56.33a13.81,13.81,0,0,1,.1-2A11.16,11.16,0,0,0,29.25,56.33Z"/><path class="h" d="M29.35,53.3a10.05,10.05,0,0,1,.1-1.78A10.05,10.05,0,0,0,29.35,53.3Z"/><path class="h" d="M30.47,37.31c.1-.73.1-1.57.2-2.3A16.28,16.28,0,0,0,30.47,37.31Z"/><path class="h" d="M29.25,60.09V57.17A28.42,28.42,0,0,0,29.25,60.09Z"/><path class="h" d="M33.12,18.71c-.92,4.7-1.73,10.14-2.45,16.09C31.39,28.85,32.2,23.41,33.12,18.71Z"/><path class="h" d="M30.17,39.71a16.31,16.31,0,0,0,.2-2.09C30.27,38.35,30.27,39,30.17,39.71Z"/><path class="h" d="M30,42.43a13.88,13.88,0,0,0,.1-2A13.88,13.88,0,0,1,30,42.43Z"/><path class="h" d="M29.76,44.94a10.73,10.73,0,0,1,.2-1.88A6,6,0,0,0,29.76,44.94Z"/><path class="g" d="M37.2.52C36.79,2,35,8.67,33.12,18.71,35,8.67,36.79,2,37.2.52Z"/><path class="g" d="M44.74,67.41A7.24,7.24,0,1,1,37.5,60,7.49,7.49,0,0,1,44.74,67.41Z"/><path class="i" d="M37.5,76.29a8.78,8.78,0,1,1,8.56-8.78A8.73,8.73,0,0,1,37.5,76.29Zm0-14.84a6.07,6.07,0,1,0,5.91,6.06A6,6,0,0,0,37.5,61.45Z"/><path class="j" d="M42.09,66A2.86,2.86,0,1,1,39.24,63,3.11,3.11,0,0,1,42.09,66Z"/><path class="g" d="M44.74,45.88a7.24,7.24,0,1,1-7.24-7.42A7.23,7.23,0,0,1,44.74,45.88Z"/><path class="i" d="M37.5,54.55a8.78,8.78,0,1,1,8.56-8.77A8.73,8.73,0,0,1,37.5,54.55Zm0-14.84a6.07,6.07,0,1,0,5.91,6.07A6,6,0,0,0,37.5,39.71Z"/><path class="j" d="M42,44.31a2.86,2.86,0,1,1-2.86-2.92A2.83,2.83,0,0,1,42,44.31Z"/><path class="g" d="M42.7,27.7a5.2,5.2,0,1,1-5.2-5.34A5.29,5.29,0,0,1,42.7,27.7Z"/><path class="i" d="M37.4,34a6.28,6.28,0,0,1,0-12.55,6.23,6.23,0,0,1,6.12,6.28A6.09,6.09,0,0,1,37.4,34Zm.1-10.56a4.29,4.29,0,1,0,4.18,4.29A4.33,4.33,0,0,0,37.5,23.41Z"/><path class="j" d="M40.66,26.65a2,2,0,1,1-4.07,0,2,2,0,1,1,4.07,0Z"/><path class="k" d="M37.5,149s7.54-9.4,7.54-20.9V116H30v12.12C30,139.63,37.5,149,37.5,149Z"/><path class="l" d="M37.4,139.94s5.2-6.38,5.2-14.32v-8.36H32.2v8.36C32.31,133.46,37.4,139.94,37.4,139.94Z"/><path class="m" d="M46.78,112.14v2.51a3.44,3.44,0,0,1-3.37,3.45H31.18a3.44,3.44,0,0,1-3.36-3.45v-2.51a3.44,3.44,0,0,1,3.36-3.45H43.41A3.44,3.44,0,0,1,46.78,112.14Z"/><path class="n" d="M46.78,112.14v2.51a3.44,3.44,0,0,1-3.37,3.45H35.06a3.44,3.44,0,0,1-3.37-3.45v-2.51a3.44,3.44,0,0,1,3.37-3.45h8.35A3.44,3.44,0,0,1,46.78,112.14Z"/><path class="i" d="M43.31,112.14v2.51A3.44,3.44,0,0,1,40,118.1H35.06a3.44,3.44,0,0,1-3.37-3.45v-2.51a3.44,3.44,0,0,1,3.37-3.45H40A3.44,3.44,0,0,1,43.31,112.14Z"/><path class="a" d="M41.89,93.75,37.3,137.33,32.71,93.75l4.49-11.5Z"/><path class="b" d="M37.2,82.25l.1,55.08L32.71,93.75Z"/></svg>