<svg xmlns="http://www.w3.org/2000/svg" viewBox="0 0 53.54 101.19"><defs><style>.a{fill:#f3aa43;}.b{fill:#f19b2c;}.c{fill:#fd6d60;}.d{fill:#fd8c7f;}.e{fill:#34a3c2;}.f{fill:#42cdf5;}.g{fill:#3ec1e6;}.h{fill:#556566;}.i{fill:#d5e5e6;}.j{fill:#fff;}</style></defs><title>Ресурс 16</title><path class="a" d="M13.85,52.21V73.78a.84.84,0,0,1-.88.9A11.57,11.57,0,0,0,1.75,86.18a.69.69,0,0,1-.17.54.59.59,0,0,1-.7.36.84.84,0,0,1-.88-.9V64.79A13.23,13.23,0,0,1,12.88,51.4a1,1,0,0,1,.62.27C13.67,51.67,13.76,51.94,13.85,52.21Z"/><path class="b" d="M13.85,52.75v21a.84.84,0,0,1-.88.9A11.57,11.57,0,0,0,1.75,86.18a.69.69,0,0,1-.17.54V66.23A13.53,13.53,0,0,1,13.85,52.75Z"/><path class="c" d="M20.24,87.53a20.69,20.69,0,0,0,2.63,9.71A19.45,19.45,0,0,0,24,94.81a21.82,21.82,0,0,0,2.19,6.38,21.52,21.52,0,0,0,2.19-6.38,21.4,21.4,0,0,0,1.14,2.43,20.69,20.69,0,0,0,2.63-9.71Z"/><path class="d" d="M20.94,87.53a20.82,20.82,0,0,0,1.93,4.67A18.78,18.78,0,0,0,24,89.78a22,22,0,0,0,2.19,6.38,21.64,21.64,0,0,0,2.19-6.38,20.61,20.61,0,0,0,1.14,2.42,20.82,20.82,0,0,0,1.93-4.67Z"/><path class="e" d="M20.59,78.18a82.71,82.71,0,0,0-.35,9.35H32.69c0-3.23-.18-6.47-.35-9.35Z"/><path class="f" d="M23.75,78.18c-.18,2.88-.18,6.12-.18,9.35h5.79c0-3.23-.09-6.38-.18-9.35Z"/><path class="c" d="M11.48,84.3a12.68,12.68,0,0,0,1.75,6.29A12.18,12.18,0,0,0,14,89.06a12.84,12.84,0,0,0,1.49,4.22A12.84,12.84,0,0,0,17,89.06a12.18,12.18,0,0,0,.79,1.53,13.56,13.56,0,0,0,1.75-6.29Z"/><path class="d" d="M12,84.3a16.27,16.27,0,0,0,1.22,3A12.18,12.18,0,0,0,14,85.82a12.93,12.93,0,0,0,1.49,4.23A12.93,12.93,0,0,0,17,85.82a12.18,12.18,0,0,0,.79,1.53,16.67,16.67,0,0,0,1.23-3Z"/><path class="e" d="M11.66,78.18c-.09,1.89-.27,3.87-.27,6h8.24c0-2.16-.09-4.23-.26-6Z"/><path class="f" d="M13.76,78.18c-.09,1.89-.18,4-.18,6.12h3.68c0-2.16-.08-4.23-.17-6.12Z"/><path class="c" d="M33.21,84.3A12.63,12.63,0,0,0,35,90.59a11.52,11.52,0,0,0,.78-1.53,12.84,12.84,0,0,0,1.49,4.22,12.61,12.61,0,0,0,1.49-4.22,12.18,12.18,0,0,0,.79,1.53,13.5,13.5,0,0,0,1.76-6.29Z"/><path class="d" d="M33.74,84.3a16.67,16.67,0,0,0,1.23,3,11.52,11.52,0,0,0,.78-1.53,12.93,12.93,0,0,0,1.49,4.23,12.69,12.69,0,0,0,1.49-4.23,12.18,12.18,0,0,0,.79,1.53,16.67,16.67,0,0,0,1.23-3Z"/><path class="e" d="M33.39,78.18c-.18,2-.26,3.87-.26,6h8.23c0-2.16-.08-4.23-.26-6Z"/><path class="f" d="M35.49,78.18c-.09,1.89-.17,4-.17,6.12H39c0-2.16-.09-4.23-.18-6.12Z"/><path class="e" d="M43.55,47.81v27.5a3.61,3.61,0,0,1-3.41,3.32H12.79a3.48,3.48,0,0,1-3.41-3.32V47.81C9.38,24.62,22.7,5.21,25.85.9a8.19,8.19,0,0,1,.7-.9S43.47,21.48,43.55,47.81Z"/><path class="a" d="M39.61,52.21V73.78a.84.84,0,0,0,.88.9A11.55,11.55,0,0,1,51.7,86.18a.66.66,0,0,0,.18.54.59.59,0,0,0,.7.36.84.84,0,0,0,.88-.9l.08-21.48A13.23,13.23,0,0,0,40.66,51.31a.93.93,0,0,0-.61.27C39.7,51.76,39.52,51.94,39.61,52.21Z"/><path class="b" d="M39.61,52.75v21a.84.84,0,0,0,.88.9A11.55,11.55,0,0,1,51.7,86.18a.66.66,0,0,0,.18.54V66.23C51.79,59.13,46.36,53.2,39.61,52.75Z"/><path class="g" d="M43.55,47.81v27.5a3.61,3.61,0,0,1-3.41,3.32h-4C30,69.29,25.85,52.48,25.76,33.34V1a7.34,7.34,0,0,1,.71-.9S43.47,21.48,43.55,47.81Z"/><path class="h" d="M26.38,68.3a10.25,10.25,0,0,1,0-20.49,10.25,10.25,0,0,1,0,20.49Zm0-17.26a7.1,7.1,0,1,0,6.92,7.1A7,7,0,0,0,26.38,51Z"/><path class="i" d="M34.09,58.05A7.88,7.88,0,0,1,26.38,66a7.91,7.91,0,0,1,0-15.81A7.88,7.88,0,0,1,34.09,58.05Z"/><path class="j" d="M30.85,55.45a2.55,2.55,0,1,1-2.54-2.61A2.57,2.57,0,0,1,30.85,55.45Z"/><path class="h" d="M26.38,44.57a10.25,10.25,0,0,1,0-20.49,10.24,10.24,0,0,1,10,10.25A10,10,0,0,1,26.38,44.57Zm0-17.25a7.1,7.1,0,1,0,6.92,7.1A7.2,7.2,0,0,0,26.38,27.32Z"/><path class="i" d="M34,34.42a7.89,7.89,0,0,1-7.71,7.91,7.91,7.91,0,0,1,0-15.82A7.88,7.88,0,0,1,34,34.42Z"/><path class="j" d="M30.76,31.81a2.54,2.54,0,1,1-2.54-2.6A2.58,2.58,0,0,1,30.76,31.81Z"/></svg>