<svg xmlns="http://www.w3.org/2000/svg" viewBox="0 0 65.45 157.76"><defs><style>.a{fill:#fd6d60;}.b{fill:#fd8c7f;}.c{fill:#b5c5c6;}.d{fill:#a5b5b6;}.e{fill:#859596;}.f{fill:#657576;}.g,.k{fill:#d5e5e6;}.h{fill:#fff;}.i{fill:#c52e25;}.j{fill:#d53d33;}.k{fill-opacity:0.2;}</style></defs><title>Ресурс 12</title><path class="a" d="M42.89,134.08a35.71,35.71,0,0,1-4.67,16.7,35.35,35.35,0,0,1-2-4.16,37.31,37.31,0,0,1-3.59,10.28,1.7,1.7,0,0,1-.42.64,34.39,34.39,0,0,1-3.8-11,37.37,37.37,0,0,1-2,4.18,35.21,35.21,0,0,1-4.51-16.65c0-1.07,0-2.14.12-3.1v-.43c.1-.54,0-1.07.11-1.61a26.88,26.88,0,0,1,.43-3,26.17,26.17,0,0,1,1.28-5.14,17.28,17.28,0,0,1,1.16-2.46,1.85,1.85,0,0,1,1.56-1c.63,0,1,.42,1.56,1a13.63,13.63,0,0,1,1.24,2.56A26.76,26.76,0,0,1,30.64,126c0,.22.1.32,0,.43.11-.11.11-.32.21-.43.53-.75.95-1.18,1.57-1.18a.54.54,0,0,1,.42.21A3,3,0,0,1,34,126.22a.54.54,0,0,1,.2.43c0-.22.11-.32,0-.43a20.85,20.85,0,0,1,1.91-6.64,3,3,0,0,1,.63-.86,1.87,1.87,0,0,1,1.56-1,1.81,1.81,0,0,1,1.56,1,4,4,0,0,1,.83,1.49,23.91,23.91,0,0,1,1.53,6.08c.1,1,.2,1.93.4,3a7,7,0,0,0,.1,1.39v.64A10.75,10.75,0,0,1,42.89,134.08Z"/><path class="b" d="M38.43,108.67c-1.87,0-3.35,3.65-4.21,9-.52-1-1.14-1.6-1.87-1.7-.73.11-1.25.65-1.88,1.72-.81-5.34-2.25-9-4.12-9-2.51,0-4.63,7.51-4.67,16.7a35.14,35.14,0,0,0,4.5,16.65,37.37,37.37,0,0,0,2-4.18,41,41,0,0,0,3.8,11,35.54,35.54,0,0,0,3.91-11,35.35,35.35,0,0,0,2,4.16,35.84,35.84,0,0,0,4.67-16.7C43,116.13,40.94,108.66,38.43,108.67Z"/><path class="c" d="M48,80.83c1.69,17.63,17.5,23.31,17.5,23.31L47.73,125.29C47.73,125.08,46.17,63.1,48,80.83Z"/><path class="d" d="M47,81.8c1.68,17.62,17.5,23.31,17.5,23.31L46.79,126.26S45.33,64.17,47,81.8Z"/><path class="c" d="M18.11,108.67c-.12,3.53-.14,7-.36,9.73v.43c0,2.13-.13,4-.13,5a3.74,3.74,0,0,1-.11,1.39l-2-2.45-.52-.53-15-18S14.72,99,17.51,82.7c.11-.53.22-1.28.33-1.82.54-5.45.74-3.31.82,2.35C18.63,89.43,18.36,99.9,18.11,108.67Z"/><path class="e" d="M18.77,82.05C16.91,99.7,1,105.55,1,105.55l17.61,20.86S20.73,64.3,18.77,82.05Z"/><path class="c" d="M49.18,43.63l-.37,74.6-31.27.17.38-74.6a64.19,64.19,0,0,1,3.33-19.58A87.86,87.86,0,0,1,33.56.32l.21-.21A81.46,81.46,0,0,1,46.16,24.19,69.74,69.74,0,0,1,49.18,43.63Z"/><path class="f" d="M33,84.22a8.77,8.77,0,0,0-8.49,8.7,8.54,8.54,0,0,0,8.4,8.62,8.77,8.77,0,0,0,8.48-8.71A8.54,8.54,0,0,0,33,84.22ZM33,99a6,6,0,0,1-5.81-6A6.13,6.13,0,0,1,33,87a6,6,0,0,1,5.81,6A6.12,6.12,0,0,1,33,99Z"/><path class="g" d="M39.45,93A6.66,6.66,0,0,1,33,99.61,6.49,6.49,0,0,1,26.53,93,6.66,6.66,0,0,1,33,86.36,6.24,6.24,0,0,1,39.45,93Z"/><path class="h" d="M36.86,90.72A2.2,2.2,0,0,1,34.66,93a2.14,2.14,0,0,1-2.18-2.24,2.19,2.19,0,0,1,2.2-2.25A2.44,2.44,0,0,1,36.86,90.72Z"/><path class="f" d="M33.16,60.28A8.77,8.77,0,0,0,24.67,69a8.56,8.56,0,0,0,8.4,8.62,8.77,8.77,0,0,0,8.48-8.71A8.54,8.54,0,0,0,33.16,60.28Zm-.08,14.54a6,6,0,0,1-5.8-6,6.11,6.11,0,0,1,5.86-6A6,6,0,0,1,39,68.8,5.85,5.85,0,0,1,33.08,74.82Z"/><path class="g" d="M39.57,68.8a6.66,6.66,0,0,1-6.49,6.66,6.5,6.5,0,0,1-6.43-6.59,6.65,6.65,0,0,1,6.5-6.66A6.48,6.48,0,0,1,39.57,68.8Z"/><path class="h" d="M36.88,66.67a2.2,2.2,0,0,1-2.21,2.26A2.13,2.13,0,0,1,32.5,66.7a2.2,2.2,0,0,1,2.2-2.26A2.14,2.14,0,0,1,36.88,66.67Z"/><path class="f" d="M33.28,36.13a8.76,8.76,0,0,0-8.49,8.7,8.55,8.55,0,0,0,8.4,8.61,8.76,8.76,0,0,0,8.49-8.7A8.55,8.55,0,0,0,33.28,36.13ZM33.2,50.88a6,6,0,0,1-5.8-6,6.11,6.11,0,0,1,5.86-6,6,6,0,0,1,5.81,6A6.13,6.13,0,0,1,33.2,50.88Z"/><path class="g" d="M39.7,44.86a6.67,6.67,0,0,1-6.5,6.66,6.5,6.5,0,0,1-6.43-6.59,6.67,6.67,0,0,1,6.5-6.67A6.51,6.51,0,0,1,39.7,44.86Z"/><path class="h" d="M37.1,42.63a2.18,2.18,0,0,1-2.2,2.25,2.14,2.14,0,0,1-2.18-2.23,2.2,2.2,0,0,1,2.2-2.26A2.45,2.45,0,0,1,37.1,42.63Z"/><path class="e" d="M49.1,122.18A3.66,3.66,0,0,1,45.43,126l-26,.13a3.55,3.55,0,0,1-3.63-3.72,3.66,3.66,0,0,1,3.67-3.76l26.05-.14A3.57,3.57,0,0,1,49.1,122.18Z"/><path class="i" d="M24.59,126.06a7.73,7.73,0,0,1-1.17,4.38c-.21.22-.52.54-.73.54l-.11.11a.3.3,0,0,1-.41,0c-2.3,0-5.09-3.71-5.91-5.85l-.93-2.88-2.67-8.1a4.52,4.52,0,0,1,2.74-5.58,3.21,3.21,0,0,1,1.46-.22,3.34,3.34,0,0,1,.94.1.14.14,0,0,0,.21,0c.21,0,.31.11.52.11a2.43,2.43,0,0,1,.93.53,3.66,3.66,0,0,1,1.45,2.13l1.95,5.86.31,1.18.72,2.45.51,1.39A35.92,35.92,0,0,1,24.59,126.06Z"/><path class="j" d="M23.32,130.34c-.21.21-.42.21-.73.32a.14.14,0,0,1-.21,0c-2.3,0-4.56-4.67-4.76-7L16.43,112.1a4.82,4.82,0,0,1,1.16-3.53,3.85,3.85,0,0,1,2.91,2.76l3.59,11C24.81,124.35,24.79,128.62,23.32,130.34Z"/><path class="i" d="M40.83,130.24c.2.22.52.54.72.54s.32.1.52.1c2.3,0,5.13-3.77,6-5.91l3.71-11a4.4,4.4,0,0,0-2.68-5.54,5.43,5.43,0,0,0-1.36-.32,3.47,3.47,0,0,0-1,.22,3.94,3.94,0,0,0-2.93,2.8l-3.71,11C39.4,124.27,39.27,128.65,40.83,130.24Z"/><path class="j" d="M40.83,130.24c.21.22.41.22.72.32a.14.14,0,0,0,.21,0c2.3,0,4.61-4.73,4.83-7.08l1.31-11.55a4.77,4.77,0,0,0-1.13-3.52,4,4,0,0,0-2.93,2.8l-3.7,11C39.4,124.27,39.27,128.65,40.83,130.24Z"/><path class="i" d="M36.36,128c0,2.14-1.49,6.21-3.37,6.22h-.21c-1.77-.31-3.21-4.15-3.3-6l-.16-9.4a3.55,3.55,0,0,1,3.45-3.54H33a3.3,3.3,0,0,1,3.32,3.41Z"/><path class="j" d="M36.36,128c0,2.14-1.49,6.21-3.37,6.22h-.21l.1-19a3.31,3.31,0,0,1,3.32,3.4Z"/><path class="j" d="M46.05,24.09a30.75,30.75,0,0,1-12.41,2.52h-.42a32.06,32.06,0,0,1-12.28-2.5A87.74,87.74,0,0,1,33.25.22L33.46,0A78.9,78.9,0,0,1,46.05,24.09Z"/><path class="k" d="M33.46.43l-.79,156.68a1.85,1.85,0,0,1-.42.65,34.38,34.38,0,0,1-3.8-11,36.19,36.19,0,0,1-2,4.18,35.27,35.27,0,0,1-4.5-16.65,30.79,30.79,0,0,1,.12-3.1c-2.29,0-5.09-3.71-5.91-5.85l-.92-2.88-15-18s14.72-5.32,17.51-21.58l.2-39.11a64.19,64.19,0,0,1,3.33-19.58A79.55,79.55,0,0,1,33.46.43Z"/></svg>