<svg xmlns="http://www.w3.org/2000/svg" viewBox="0 0 44.21 107.08"><defs><style>.a{fill:#fd6d60;}.b{fill:#fd8c7f;}.c{fill:#ef893a;}.d{fill:#f3aa43;}.e{fill:#d5e5e6;}.f{fill:#c52e25;}.g{fill:#fff;}.h{fill:#b5c5c6;}.i{fill:#d53d33;}</style></defs><title>Ресурс 15</title><path class="a" d="M28.38,69.9c-1.59,0-3.09,3.36-3.8,8.26-.53-.91-1.06-1.46-1.68-1.55-.62.09-1.15.64-1.68,1.55-.71-4.9-2.12-8.35-3.8-8.26-2.3,0-4.25,6.9-4.25,15.42a32.59,32.59,0,0,0,4.25,15.41,24.63,24.63,0,0,0,1.76-3.81,35.15,35.15,0,0,0,3.54,10.16,35.15,35.15,0,0,0,3.54-10.16A24,24,0,0,0,28,100.73a32.64,32.64,0,0,0,4.24-15.41C32.62,76.8,30.68,69.9,28.38,69.9Z"/><path class="b" d="M28.38,61.74c-1.59,0-3.09,3.36-3.8,8.26-.53-.91-1.06-1.46-1.68-1.55-.62.09-1.15.64-1.68,1.55-.71-4.9-2.12-8.35-3.8-8.26-2.3,0-4.25,6.9-4.25,15.42a32.59,32.59,0,0,0,4.25,15.41,24.63,24.63,0,0,0,1.76-3.81,35.15,35.15,0,0,0,3.54,10.16,35.15,35.15,0,0,0,3.54-10.16A24,24,0,0,0,28,92.57a32.64,32.64,0,0,0,4.24-15.41C32.62,68.64,30.68,61.74,28.38,61.74Z"/><path class="c" d="M38.9,54.76V80.33H6.9V54.76c0-13.78,5-26,9.46-34.18.7-1.27,1.32-2.45,1.94-3.44,2.65-4.36,4.6-6.89,4.6-6.89a75.39,75.39,0,0,1,6.54,10.33C33.86,28.74,38.9,41,38.9,54.76Z"/><path class="d" d="M38.9,54.76V80.33H31.83C21.57,78.7,13.61,62.2,13.61,42.07a63.88,63.88,0,0,1,3.45-21.49c.44-1.18.89-2.36,1.42-3.44,2.65-4.36,4.59-6.89,4.59-6.89a74.76,74.76,0,0,1,6.55,10.33C33.86,28.74,38.9,41,38.9,54.76Z"/><path class="e" d="M30.86,58.84A7.87,7.87,0,1,1,23,50.77,7.87,7.87,0,0,1,30.86,58.84Z"/><path class="f" d="M23,68.36a9.61,9.61,0,0,1,0-19.22,9.61,9.61,0,0,1,0,19.22Zm0-16.14a6.62,6.62,0,0,0,0,13.24,6.62,6.62,0,0,0,0-13.24Z"/><path class="g" d="M27.85,57.21A3.19,3.19,0,1,1,24.67,54,3.22,3.22,0,0,1,27.85,57.21Z"/><path class="e" d="M29.18,35.9a6.28,6.28,0,1,1-6.28-6.43A6.28,6.28,0,0,1,29.18,35.9Z"/><path class="f" d="M22.9,43.43a7.62,7.62,0,0,1,0-15.23,7.62,7.62,0,0,1,0,15.23Zm0-12.88A5.26,5.26,0,1,0,28,35.81,5.2,5.2,0,0,0,22.9,30.55Z"/><path class="g" d="M26.88,34.64A2.48,2.48,0,1,1,24.4,32.1,2.56,2.56,0,0,1,26.88,34.64Z"/><path class="h" d="M21.94,3.46V20.51h2v-17Z"/><path class="f" d="M25,2.27a2.14,2.14,0,0,1-2,2.08,2.32,2.32,0,0,1-2.13-2.17A2.32,2.32,0,0,1,23,0,2.48,2.48,0,0,1,25,2.27Z"/><path class="f" d="M29.44,20.58H16.36c.7-1.27,1.32-2.45,1.94-3.44,2.65-4.36,4.6-6.89,4.6-6.89A75.39,75.39,0,0,1,29.44,20.58Z"/><path class="h" d="M34.92,80.42a2.68,2.68,0,0,1-2.74,2.81H12.55a2.81,2.81,0,0,1,0-5.62H32.18A2.79,2.79,0,0,1,34.92,80.42Z"/><path class="f" d="M12.38,88.13a1.35,1.35,0,0,1-.89.54,1.68,1.68,0,0,1-.62.09c-2.47,0-5.65-4.17-6.54-6.52L.26,70.09a4.91,4.91,0,0,1,3-6.17,4.4,4.4,0,0,1,1.5-.27c.36,0,.8.09,1.15.09a4.81,4.81,0,0,1,3.27,3.17l4.07,12.15C14.15,81.42,14,86.32,12.38,88.13Z"/><path class="i" d="M12.38,88.13l-.8.27H11.4c-2.47,0-5.12-5.26-5.39-7.89L4.69,67.73a4.76,4.76,0,0,1,1.23-3.81,4.81,4.81,0,0,1,3.27,3.17l4.07,12.15C14.15,81.42,14,86.32,12.38,88.13Z"/><path class="f" d="M31.83,88.13a1.33,1.33,0,0,0,.88.54,1.71,1.71,0,0,0,.62.09c2.48,0,5.66-4.17,6.54-6.52l4.07-12.15a4.91,4.91,0,0,0-3-6.17,4.4,4.4,0,0,0-1.5-.27c-.35,0-.79.09-1.15.09A4.83,4.83,0,0,0,35,66.91L30.94,79.06C30.06,81.42,30.24,86.32,31.83,88.13Z"/><path class="i" d="M31.83,88.13l.79.27h.18c2.48,0,5.13-5.26,5.39-7.89l1.33-12.78a4.73,4.73,0,0,0-1.24-3.81A4.83,4.83,0,0,0,35,67.09L30.94,79.24C30.06,81.42,30.24,86.32,31.83,88.13Z"/><path class="f" d="M26.88,85.59c0,2.36-1.59,6.89-3.72,6.89H23c-2-.27-3.63-4.62-3.72-6.71L19,75.34a3.82,3.82,0,0,1,3.8-3.89H23a3.91,3.91,0,0,1,3.71,3.81Z"/><path class="i" d="M26.88,85.59c0,2.36-1.59,6.89-3.72,6.89H23v-21a3.91,3.91,0,0,1,3.71,3.81Z"/></svg>