<svg xmlns="http://www.w3.org/2000/svg" viewBox="0 0 51.41 53.12"><defs><style>.a{fill:#d53d33;}.b{fill:#c52e25;}.c{fill:#fd6d60;}.d{fill:#fd8c7f;}.e{fill:#3ec1e6;}.f{fill:#42cdf5;}.g{fill:#b5c5c6;}.h{fill:#d5e5e6;}.i{fill:#fff;}</style></defs><title>Ресурс 19</title><path class="a" d="M31.51,10.2,20.09,12.51c-.29.09-.48-.11-.58-.41a6.26,6.26,0,0,0-7.22-5H12c-.2-.1-.29-.2-.29-.4s.09-.5.39-.6L23.41,3.9A7.28,7.28,0,0,1,31.9,9.7a.6.6,0,0,1-.1.4A.43.43,0,0,1,31.51,10.2Z"/><path class="b" d="M31.21,10.2,20.09,12.4c-.29.11-.48-.1-.58-.39a6.26,6.26,0,0,0-7.22-5H12L22.83,4.9A7.16,7.16,0,0,1,31.21,10.2Z"/><path class="a" d="M41.46,20.31,39.21,32c-.09.3.1.5.39.6A6.41,6.41,0,0,1,44.48,40v.3c.1.2.2.29.39.29s.49-.09.59-.4l2.14-11.6A7.44,7.44,0,0,0,42,19.91a.6.6,0,0,0-.4.1C41.55,20.11,41.46,20.21,41.46,20.31Z"/><path class="b" d="M41.36,20.61,39.21,32c-.09.3.1.5.39.6A6.4,6.4,0,0,1,44.48,40v.31l2.15-11.11A7.58,7.58,0,0,0,41.36,20.61Z"/><path class="c" d="M28,31.91c-1.08-1.1-4.3.2-8,3a2.73,2.73,0,0,0-.1-2.2,2.54,2.54,0,0,0-2.15-.1c2.73-3.8,4-7,2.93-8.2-1.56-1.6-7.41,1.7-13,7.4A30.7,30.7,0,0,0,.49,45.12a29.93,29.93,0,0,0,3.71-1.3A31.22,31.22,0,0,0,0,53.12a30,30,0,0,0,9.07-4.3,31.38,31.38,0,0,0-1.27,3.8,29.41,29.41,0,0,0,13-7.4C26.34,39.52,29.65,33.51,28,31.91Z"/><path class="d" d="M33.36,26.51c-1.07-1.1-4.29.2-8,3a2.74,2.74,0,0,0-.09-2.2,2.54,2.54,0,0,0-2.15-.1c2.73-3.8,4-7,2.92-8.2-1.56-1.6-7.41,1.7-13,7.4a30.69,30.69,0,0,0-7.22,13.3,28,28,0,0,0,3.71-1.3,31.91,31.91,0,0,0-4.2,9.31,29.86,29.86,0,0,0,9.08-4.3,31.38,31.38,0,0,0-1.27,3.8,29.4,29.4,0,0,0,13-7.4C31.7,34,34.92,28.11,33.36,26.51Z"/><path class="e" d="M39.12,33.21,26.24,46.42l-20-20.51L19.12,12.7C24.78,6.9,32.19,3.7,38.43,2a54.75,54.75,0,0,1,13-1.9,58.66,58.66,0,0,1-1.86,13.41C47.8,19.91,44.77,27.41,39.12,33.21Z"/><path class="f" d="M33.85,27.81,21,41l-9.56-9.81L24.29,18A78.72,78.72,0,0,1,40.39,5.5,80.64,80.64,0,0,1,51.31.1,74.13,74.13,0,0,1,46,11.3,80.43,80.43,0,0,1,33.85,27.81Z"/><path class="g" d="M25.46,43.62a2.5,2.5,0,0,1-3.71,0L8.58,30a2.84,2.84,0,0,1,0-3.8,2.5,2.5,0,0,1,3.71,0l13.17,13.5A2.78,2.78,0,0,1,25.46,43.62Z"/><path class="b" d="M5.27,33.21a1.6,1.6,0,0,1-1-.2,1,1,0,0,1-.49-.4c-1.65-1.7-1.07-6.8-.09-8.9L9,12.7a4.48,4.48,0,0,1,6-2.1,2.59,2.59,0,0,1,1.17.91,5.48,5.48,0,0,1,.69.89,4.7,4.7,0,0,1,.19,4.41l-5.27,11C10.83,29.81,7.61,33.11,5.27,33.21Z"/><path class="a" d="M5.27,33.21a1.49,1.49,0,0,1-.68-.4.1.1,0,0,1-.1-.1c-1.66-1.7,0-7.1,1.56-9l7.51-9.5a4.19,4.19,0,0,1,3.32-1.7,4.68,4.68,0,0,1,.19,4.4l-5.27,11C10.83,29.81,7.61,33.11,5.27,33.21Z"/><path class="b" d="M18.34,46.62a1.72,1.72,0,0,0,.19,1,1,1,0,0,0,.39.5c1.66,1.7,6.64,1.1,8.59.1l10.73-5.4a4.71,4.71,0,0,0,2-6.21,2.77,2.77,0,0,0-.88-1.2,5.39,5.39,0,0,0-.88-.7,4.36,4.36,0,0,0-4.29-.2l-10.73,5.4C21.65,40.91,18.44,44.22,18.34,46.62Z"/><path class="a" d="M18.34,46.62a1.6,1.6,0,0,0,.39.7.1.1,0,0,0,.1.1c1.65,1.7,6.92,0,8.78-1.6l9.26-7.71a4.38,4.38,0,0,0,1.66-3.4,4.36,4.36,0,0,0-4.29-.2l-10.73,5.4C21.65,40.91,18.44,44.22,18.34,46.62Z"/><path class="b" d="M16.68,41.41c-1.46,1.51-5.56,3.51-7,2.11l-.2-.2c-1.17-1.61.59-5.61,1.95-7.11l6.64-7.1.09-.1a3.6,3.6,0,0,1,5.08-.1l.09.1a3.68,3.68,0,0,1,0,5.1Z"/><path class="a" d="M16.68,41.41c-1.46,1.51-5.56,3.51-7,2.11l-.2-.2L23.31,29.11a3.68,3.68,0,0,1,0,5.1Z"/><path class="b" d="M27.22,24.91a9,9,0,0,1,0-12.61,8.51,8.51,0,0,1,12.29,0,9.05,9.05,0,0,1,0,12.61A8.5,8.5,0,0,1,27.22,24.91Zm10.34-10.7a5.89,5.89,0,0,0-8.49,0,6.27,6.27,0,0,0,0,8.7,5.91,5.91,0,0,0,8.49,0A6.27,6.27,0,0,0,37.56,14.21Z"/><path class="h" d="M38,23.41a6.54,6.54,0,0,1-9.46,0,7,7,0,0,1,0-9.71,6.54,6.54,0,0,1,9.46,0A6.94,6.94,0,0,1,38,23.41Z"/><path class="i" d="M37.65,19.81a2.14,2.14,0,0,1-3.12,0,2.27,2.27,0,0,1,0-3.2,2.14,2.14,0,0,1,3.12,0A2.27,2.27,0,0,1,37.65,19.81Z"/><path class="a" d="M49.46,13.4A31.52,31.52,0,0,1,46,11.3a25.39,25.39,0,0,1-3-2.7,26.36,26.36,0,0,1-2.64-3.2,31.68,31.68,0,0,1-2-3.5,54.7,54.7,0,0,1,13-1.9A52,52,0,0,1,49.46,13.4Z"/></svg>