<svg xmlns="http://www.w3.org/2000/svg" viewBox="0 0 59.7 61.12"><defs><style>.a{fill:#e47e30;}.b{fill:#f3aa43;}.c{fill:#b51f18;}.d{fill:#95a5a6;}.e{fill:#b5c5c6;}.f{fill:#a5b5b6;}.g{fill:#a5100e;}.h{fill:#657576;}.i{fill:#c52e25;}.j{fill:#e54d42;}.k{fill:#d53d33;}.l{fill:#d5e5e6;}.m{fill:#556566;}.n{fill:#fff;}.o{fill:#850309;}</style></defs><title>Ресурс 18</title><path class="a" d="M0,61.12s9.07-.9,15.22-7.2l6.44-6.6-8.2-8.41L7,45.52C.88,51.82,0,61.12,0,61.12Z"/><path class="b" d="M3.8,57.32s6.25-.6,10.44-4.9l4.39-4.5L13,42.11,8.58,46.62C4.39,50.92,3.8,57.32,3.8,57.32Z"/><path class="c" d="M30.24,13.3c-12,10-25.36,3.31-25.36,3.31L3,41.11C3.12,41.21,42.24,3.4,30.24,13.3Z"/><path class="d" d="M26.34,47.12l-1.56,1.6a3.07,3.07,0,0,1-4.49,0l-8.1-8.31a3.27,3.27,0,0,1,0-4.6l1.56-1.6a3.07,3.07,0,0,1,4.49,0l8.1,8.31A3.25,3.25,0,0,1,26.34,47.12Z"/><path class="e" d="M26.34,47.12l-1.56,1.6a3.07,3.07,0,0,1-4.49,0L14.73,43a3.27,3.27,0,0,1,0-4.61l1.56-1.6a3.07,3.07,0,0,1,4.49,0l5.56,5.71A3.25,3.25,0,0,1,26.34,47.12Z"/><path class="f" d="M24.09,44.82l-1.56,1.6a3.06,3.06,0,0,1-4.48,0L14.73,43a3.27,3.27,0,0,1,0-4.61l1.56-1.6a3.07,3.07,0,0,1,4.49,0l3.31,3.4A3.26,3.26,0,0,1,24.09,44.82Z"/><path class="g" d="M30.24,14.6c-12,10-25.36,3.31-25.36,3.31L3,42.41C3,42.52,42.14,4.7,30.24,14.6Z"/><path class="c" d="M46.92,30.41c-9.75,12.3-3.22,26-3.22,26l-23.9,1.9S56.68,18.11,46.92,30.41Z"/><path class="g" d="M45.65,30.51c-9.75,12.31-3.22,26-3.22,26l-23.9,1.9C18.53,58.32,55.41,18.21,45.65,30.51Z"/><path class="h" d="M30.63,48a2,2,0,0,1-2.83,0L13.07,32.91a2.09,2.09,0,0,1,0-2.9,2,2,0,0,1,2.83,0L30.63,45.12A2.09,2.09,0,0,1,30.63,48Z"/><path class="i" d="M44.68,33.61,30.92,47.72,13.27,29.61,27,15.51A51.88,51.88,0,0,1,46.63,3.3c1.56-.6,3-1,4.29-1.4q1.32-.3,2.34-.6A49.75,49.75,0,0,1,59.6.1a52.5,52.5,0,0,1-1.17,6.5c-.19.8-.39,1.7-.68,2.6-.39,1.3-.78,2.8-1.37,4.31A50.65,50.65,0,0,1,44.68,33.61Z"/><path class="j" d="M44.68,33.61,30.92,47.72l-12.68-13L32,20.61A112.23,112.23,0,0,1,48.87,6.5C50,5.7,51.21,5,52.19,4.3a16.83,16.83,0,0,1,1.75-1.1A63.91,63.91,0,0,1,59.7,0a52.5,52.5,0,0,1-1.17,6.5c-.2.8-.39,1.7-.68,2.6-.39,1.3-.78,2.8-1.37,4.3A51.77,51.77,0,0,1,44.68,33.61Z"/><path class="k" d="M39.7,28.51,26,42.61l-7.71-7.9L32,20.61A112.23,112.23,0,0,1,48.87,6.5C50,5.7,51.21,5,52.19,4.3a16.83,16.83,0,0,1,1.75-1.1A63.91,63.91,0,0,1,59.7,0c-.1.2-1.17,2.4-3.12,5.9A15.58,15.58,0,0,1,55.5,7.7c-.68,1.1-1.36,2.2-2.14,3.4A102.92,102.92,0,0,1,39.7,28.51Z"/><path class="l" d="M44.09,26.31a6.94,6.94,0,0,1-10,0,7.38,7.38,0,0,1,0-10.2,6.93,6.93,0,0,1,10,0A7.19,7.19,0,0,1,44.09,26.31Z"/><path class="m" d="M33.26,27.21a8.69,8.69,0,0,1,0-12A8.16,8.16,0,0,1,45,15.2a8.67,8.67,0,0,1,0,12A8.16,8.16,0,0,1,33.26,27.21Zm10-10.2a5.59,5.59,0,0,0-8.09,0,6,6,0,0,0,0,8.3,5.61,5.61,0,0,0,8.09,0A6,6,0,0,0,43.21,17Z"/><path class="n" d="M43.31,23.41a2.84,2.84,0,0,1-4,0,3,3,0,0,1,0-4.1,2.84,2.84,0,0,1,4,0A3,3,0,0,1,43.31,23.41Z"/><path class="g" d="M26.14,39,8.29,52.82,21.85,34.51l6.34-2Z"/><path class="o" d="M28.19,32.51,8.29,52.82,21.85,34.51Z"/><path class="a" d="M56.68,13.4a29.7,29.7,0,0,1-3.22-2.2,26.41,26.41,0,0,1-2.54-2.3,22.31,22.31,0,0,1-2.05-2.3,32.06,32.06,0,0,1-2.24-3.3c1.56-.6,3-1,4.29-1.4q1.32-.3,2.34-.6A49.75,49.75,0,0,1,59.6.1a52.5,52.5,0,0,1-1.17,6.5c-.19.8-.39,1.7-.68,2.6A21.25,21.25,0,0,1,56.68,13.4Z"/></svg>